<?xml version="1.0" standalone="no"?>
<!DOCTYPE svg PUBLIC "-//W3C//DTD SVG 1.1//EN" "http://www.w3.org/Graphics/SVG/1.1/DTD/svg11.dtd" >
<!--
2013-9-30: Created.
-->
<svg>
<metadata>
Created by iconfont
</metadata>
<defs>

<font id="iconfont" horiz-adv-x="1024" >
  <font-face
    font-family="iconfont"
    font-weight="500"
    font-stretch="normal"
    units-per-em="1024"
    ascent="896"
    descent="-128"
  />
    <missing-glyph />
    
    <glyph glyph-name="fenxiang" unicode="&#58882;" d="M576.02048 781.68064 973.70112 384 576.02048-13.68064 576.02048 201.5232c-12.8 0.75776-27.2384 1.25952-43.12064 1.25952-115.6096 0-306.5856-26.69568-482.60096-173.80352 0 0 60.8256 423.30112 525.7216 510.1568L576.02048 781.68064M576 830.90432c-6.32832 0-12.72832-1.2288-18.82112-3.74784-18.39104-7.61856-30.39232-25.56928-30.39232-45.47584l0-202.67008c-232.192-55.18336-361.3696-192.6656-429.64992-301.33248C19.16928 153.57952 2.26304 40.74496 1.57696 35.98336c-2.89792-20.18304 6.94272-40.05888 24.75008-49.98144 7.48544-4.17792 15.74912-6.23616 23.9616-6.23616 11.30496 0 22.51776 3.88096 31.56992 11.45856 157.78816 131.86048 327.91552 161.34144 444.928 162.304l0-167.19872c0-19.9168 12.00128-37.85728 30.39232-45.47584 6.0928-2.51904 12.4928-3.7376 18.82112-3.7376 12.82048 0 25.40544 4.99712 34.82624 14.41792l397.68064 397.68064c9.22624 9.216 14.41792 21.73952 14.41792 34.79552 0 13.056-5.19168 25.57952-14.41792 34.80576L610.82624 816.4864C601.40544 825.9072 588.82048 830.90432 576 830.90432L576 830.90432z"  horiz-adv-x="1024" />

    
    <glyph glyph-name="fenpei" unicode="&#59065;" d="M1005.9 520.4c-0.1 0.1-0.2 0.3-0.3 0.4l-252.3 288.1c-12.2 14.6-29.4 23-47.5 23.1-0.1 0-0.2 0-0.3 0-18.1 0-35.4-8.4-47.8-23-11.1-12.6-17.1-29.5-17.1-47.6l0-121.5L544 639.9c-17.7 0-32-14.3-32-32s14.3-32 32-32l128.7 0c17.7 0 32 14.3 32 32l0 153.5c0 2.2 0.5 3.9 0.9 4.8l251.6-287.3c2.5-3.1 2.5-9.5 0-12.6l-251.4-287.4c-0.6 1.1-1.1 2.8-1.1 5.1L704.7 350.7c0 17.7-14.3 32-32 32L512 382.7 383.3 382.7 383.3 517.4c0 38.8-29.1 70.4-64.8 70.4-18.4 0-35.8-8.2-47.8-22.4L19.4 276.9c-0.1-0.1-0.2-0.2-0.3-0.3-22.7-26.8-22.7-68.7 0-95.5 0.1-0.2 0.3-0.4 0.5-0.5l251.2-284.1c12.2-14.6 29.4-23 47.4-23.1 0.1 0 0.2 0 0.3 0 18.1 0 35.4 8.4 47.8 23 11.1 12.6 17.1 29.5 17.1 47.6L383.4 64 482 64c17.7 0 32 14.3 32 32s-14.3 32-32 32L351.3 128c-17.7 0-32-14.3-32-32l0-152.2c0-2.2-0.5-3.9-0.9-4.8L67.8 222.5c-2.4 3.1-2.4 9.5 0 12.6L318.2 522.4c0.6-1.1 1.1-2.8 1.1-5.1l0-166.7c0-17.7 14.3-32 32-32L512 318.6l128.7 0 0-134.7c0-38.8 29.1-70.4 64.8-70.4 18.4 0 35.8 8.1 47.7 22.4l252.3 288.5c0.1 0.1 0.2 0.3 0.3 0.4C1028.6 451.6 1028.6 493.6 1005.9 520.4z"  horiz-adv-x="1024" />

    
    <glyph glyph-name="fankui" unicode="&#59192;" d="M800.037628-64.010751 223.962372-64.010751c-52.980346 0-95.983874 43.003528-95.983874 95.983874l0 639.892491c0 52.980346 43.003528 95.983874 95.983874 95.983874l447.924744 0c17.717453 0 31.994625-14.277171 31.994625-31.994625s-14.277171-31.994625-31.994625-31.994625L223.962372 703.860239c-17.545439 0-31.994625-14.449185-31.994625-31.994625l0-639.892491c0-17.717453 14.449185-31.994625 31.994625-31.994625l575.903242 0c17.717453 0 31.994625 14.277171 31.994625 31.994625L831.860239 544.05913c0 17.717453 14.277171 31.994625 31.994625 31.994625 17.717453 0 31.994625-14.277171 31.994625-31.994625l0-511.913993C896.021502-20.835209 852.84596-64.010751 800.037628-64.010751zM612.026205 448.075256c-8.256677 0-16.341341 3.096254-22.705863 9.460776-12.55703 12.55703-12.55703 32.682681 0 45.239711L907.374433 820.65782c12.55703 12.55703 32.682681 12.55703 45.239711 0s12.55703-32.682681 0-45.239711L634.560054 457.364018C628.367546 451.17151 620.110868 448.075256 612.026205 448.075256zM479.919368 448.075256 287.951621 448.075256c-17.717453 0-31.994625 14.277171-31.994625 31.994625s14.277171 31.994625 31.994625 31.994625L479.919368 512.064505c17.717453 0 31.994625-14.277171 31.994625-31.994625C511.913993 462.352427 497.636822 448.075256 479.919368 448.075256zM672.05913 256.107509 287.951621 256.107509c-17.717453 0-31.994625 14.277171-31.994625 31.994625s14.277171 31.994625 31.994625 31.994625l383.935495 0c17.717453 0 31.994625-14.277171 31.994625-31.994625S689.604569 256.107509 672.05913 256.107509z"  horiz-adv-x="1024" />

    
    <glyph glyph-name="bianji" unicode="&#58906;" d="M822.677808 573.308577c-14.303774 23.668049-31.952736 46.818305-53.54859 68.290339-21.834284 21.686928-45.39591 39.464827-69.496817 53.731762l42.329061 42.34441c0 0 61.273529 0.017396 91.902106-30.625508 30.636764-30.640857 30.636764-91.917456 30.636764-91.917456L822.677808 573.308577 822.677808 573.308577zM445.400163 190.580802 317.40707 190.580802 317.40707 318.572872l15.371082 15.364943c26.022677-12.246929 51.862181-29.576619 75.130118-52.849672 23.279193-23.252587 40.590464-49.124837 52.859905-75.140351L445.400163 190.580802 445.400163 190.580802zM787.309276 537.922648 497.709529 242.881982c-14.939247 24.731264-33.376155 48.901757-55.933917 71.330582-22.802332 22.666232-47.412846 41.207517-72.584132 56.130392l295.577902 290.121634c24.918529-11.713786 49.649793-28.282137 71.932286-50.573839C758.994394 587.593931 775.564791 562.878017 787.309276 537.922648L787.309276 537.922648zM254.328429 673.88525 254.328429 127.517511l546.383088 0L800.711518 358.585167l63.773466 84.23345 0.01535-317.809229c0-33.849946-27.430746-61.273529-61.269435-61.273529L251.809049 63.735859c-33.834596 0-61.269435 27.423583-61.269435 61.273529L190.539614 676.408723c0 33.864272 27.430746 61.283762 61.269435 61.283762l317.830719-0.017396-84.244706-63.789838L254.328429 673.88525 254.328429 673.88525z"  horiz-adv-x="1024" />

    
    <glyph glyph-name="zhongzhi1" unicode="&#59239;" d="M897.58826667 211.86453332999997c-16.6752 9.90186667-38.13013333 4.44053333-47.97333334-12.1504-71.1904-119.4816-201.73866667-193.6896-340.65386666-193.6896-185.34933333 0-341.39093333 127.87306667-384.47466667 300.04906667l50.82026667-50.78933333c13.6544-13.65653333 35.7952-13.65653333 49.45386666 0 13.60106667 13.65653333 13.60106667 35.7952-0.0576 49.45386666l-122.29546666 122.26773334c-9.96053333 10.016-24.9216 12.97493333-38.07253334 7.568-13.088-5.40693333-21.56906667-18.15573333-21.56906666-32.29333334 0-257.05493333 209.1392-466.19413333 466.19413333-466.19413333 163.44106667 0 316.98026667 87.29706667 400.7488 227.83253333 9.8464 16.5888 4.44053333 38.04266667-12.12053333 47.94453334v0zM508.9632 868.47466667c-179.71626667 0-340.368-100.38933333-419.1872-261.97653334-8.48-17.35573333-1.2512-38.29973333 16.1056-46.75093333 17.1872-8.48 38.29973333-1.33866667 46.7232 16.07786667 67.03893333 137.37493333 203.5616 222.70933333 356.35946667 222.70933333 185.35146667 0 341.33653333-127.87306667 384.47466666-300.0224l-62.08853333 62.05866667c-13.6544 13.65653333-35.7408 13.65653333-49.39626667 0s-13.6544-35.79306667 0-49.45386667l133.56266667-133.56266667c6.65813333-6.68586667 15.5936-10.24426667 24.69866667-10.24426666 4.4928 0 9.04853333 0.88213333 13.37386666 2.67413333 13.088 5.40693333 21.57013333 18.15573333 21.57013334 32.29333333-0.00106667 257.05706667-209.1392 466.19413333-466.1952 466.19413334v0z"  horiz-adv-x="1024" />

    
    <glyph glyph-name="yanshoudangan" unicode="&#58947;" d="M959.008 540.992l-14 0 0 102c0 35.344-28.656 64-64 64l-400 0L481.008 764.992c0 35.344-28.656 64-64 64l-352 0c-35.344 0-64-28.656-64-64l0-762c0-35.344 28.656-64 64-64l816 0c35.344 0 64 28.656 64 64l78 474C1023.008 512.336 994.352 540.992 959.008 540.992zM49.008 732.992c0 35.344 12.656 48 48 48l288 0c35.344 0 48-12.656 48-48l0-74 2 0 46 0 368 0c35.344 0 48-12.656 48-48l0-70L143.008 540.992c-35.344 0-64-28.656-64-64L49.008 282.384 49.008 732.992zM897.008 34.992c0-35.344-12.656-48-48-48l-752 0c-35.344 0-48 12.656-48 48l78 410c0 35.344 12.656 48 48 48l752 0c35.344 0 48-12.656 48-48L897.008 34.992z"  horiz-adv-x="1024" />

    
    <glyph glyph-name="yiyue" unicode="&#58948;" d="M404.515498 740.515786l553.673122 0 0-55.113225L404.515498 685.402561 404.515498 740.515786zM404.515498 423.612183l553.673122 0 0-55.113225L404.515498 368.498958 404.515498 423.612183zM404.515498 83.796754 961.256492 83.796754l0-55.113225L404.515498 28.683529 404.515498 83.796754zM176.936293 370.975359l-75.298963 65.023946-36.709063-42.508139 116.01734-100.18884 14.94027 17.289782 161.341618 160.562882-39.615253 39.805588L176.936293 370.975359zM176.936293 674.8973l-75.298963 65.023946-36.709063-42.508139 116.01734-100.18884 14.94027 17.289782 161.341618 160.562882-39.615253 39.805588L176.936293 674.8973zM176.936293 32.261007l-75.298963 65.023946L64.928267 54.777837l116.01734-100.18884 14.94027 17.289782 161.341618 160.562882-39.615253 39.804565L176.936293 32.261007z"  horiz-adv-x="1024" />

    
    <glyph glyph-name="tianjia" unicode="&#58967;" d="M953.37931 384C953.37931 627.767061 755.767084 825.37931 512 825.37931 268.232934 825.37931 70.62069 627.767061 70.62069 384 70.62069 140.232939 268.232934-57.37931 512-57.37931 755.767084-57.37931 953.37931 140.232939 953.37931 384ZM547.310345 419.310345 547.310345 631.141636C547.310345 650.78269 531.501374 666.482759 512 666.482759 492.362681 666.482759 476.689655 650.659999 476.689655 631.141636L476.689655 419.310345 264.858359 419.310345C245.217315 419.310345 229.517241 403.501365 229.517241 384 229.517241 364.362674 245.340001 348.689655 264.858359 348.689655L476.689655 348.689655 476.689655 136.858364C476.689655 117.21731 492.498626 101.517241 512 101.517241 531.637319 101.517241 547.310345 117.340001 547.310345 136.858364L547.310345 348.689655 759.141694 348.689655C778.78272 348.689655 794.482759 364.498635 794.482759 384 794.482759 403.637326 778.660017 419.310345 759.141694 419.310345L547.310345 419.310345ZM0 384C0 666.769791 229.230204 896 512 896 794.769832 896 1024 666.769791 1024 384 1024 101.230209 794.769832-128 512-128 229.230204-128 0 101.230209 0 384Z"  horiz-adv-x="1024" />

    
    <glyph glyph-name="quanxianguanli" unicode="&#58891;" d="M985.6 41.6c-41.6 35.2-89.6 57.6-140.8 76.8-44.8 16-89.6 32-131.2 51.2-44.8 19.2-54.4 60.8-32 105.6 6.4 12.8 16 25.6 28.8 35.2 35.2 28.8 54.4 64 67.2 105.6 6.4 25.6 19.2 44.8 41.6 60.8 38.4 25.6 44.8 64 41.6 105.6 0 16-6.4 28.8-22.4 32-25.6 6.4-25.6 25.6-28.8 41.6-3.2 12.8-3.2 22.4-6.4 35.2-19.2 112-115.2 198.4-230.4 201.6-124.8 3.2-227.2-76.8-249.6-195.2L313.6 640c3.2-6.4 0-16-12.8-19.2-22.4-6.4-28.8-25.6-32-44.8-3.2-44.8 19.2-83.2 64-96 108.8-35.2 160-115.2 172.8-227.2 9.6-108.8 3.2-214.4 6.4-323.2 3.2-38.4 16-54.4 54.4-54.4h358.4c41.6 0 83.2 25.6 92.8 54.4 16 38.4 3.2 83.2-32 112zM380.8 163.2c-12.8 0-19.2 3.2-19.2 19.2V256c-6.4 80-51.2 131.2-118.4 137.6-86.4 6.4-144-32-163.2-115.2-6.4-28.8-6.4-57.6-3.2-86.4 3.2-25.6-6.4-32-28.8-28.8-38.4 0-48-9.6-48-44.8v-201.6c0-35.2 6.4-41.6 41.6-41.6h345.6c41.6 0 48 6.4 48 48v188.8c0 44.8-3.2 51.2-54.4 51.2z m-76.8 3.2c-28.8-9.6-60.8 0-83.2-3.2H192c-67.2 0-67.2 0-67.2 67.2 0 28.8 6.4 54.4 22.4 76.8 35.2 48 115.2 38.4 140.8-16 22.4-38.4 16-80 16-124.8z"  horiz-adv-x="1024" />

    
    <glyph glyph-name="tixing" unicode="&#58895;" d="M945.99446 229.407202l-102.116344 150.33795c-39.711911 62.404432-56.731302 133.31856-42.548476 190.049862 5.67313 36.875346 5.67313 73.750693-5.67313 113.462604-22.692521 104.952909-113.462604 187.213296-224.088643 204.232687-96.443213 17.019391-192.886427-8.509695-263.800554-68.077563-56.731302-53.894737-90.770083-121.972299-90.770083-201.396122 0-22.692521 5.67313-39.711911 8.509695-59.567867 14.182825-53.894737 0-113.462604-39.711911-173.03047l-104.952909-158.847646c-25.529086-36.875346-31.202216-82.260388-8.509695-121.972299 25.529086-45.385042 70.914127-73.750693 121.972299-73.750693h138.99169c14.182825-87.933518 85.096953-158.847645 178.703601-158.847645s167.357341 73.750693 178.703601 161.684211h141.828255c53.894737 0 96.443213 28.365651 121.972299 73.750692 17.019391 39.711911 17.019391 87.933518-8.509695 121.972299zM512-51.412742c-42.548476 0-90.770083 39.711911-104.952909 85.096953h204.232687c-11.34626-42.548476-56.731302-85.096953-99.279778-85.096953z m382.936288 204.232687c-5.67313-22.692521-28.365651-45.385042-56.731302-42.548477H197.141274c-31.202216-2.836565-53.894737 28.365651-59.567867 42.548477-34.038781 68.077562 167.357341 170.193906 161.684211 402.792243-36.875346 201.396122 113.462604 269.473684 207.069252 266.637119 93.606648 0 263.800554-34.038781 226.925208-269.473684-8.509695-258.127424 190.049861-323.368421 161.68421-399.955678z"  horiz-adv-x="1024" />

    
    <glyph glyph-name="tuichu" unicode="&#58887;" d="M910.272 593.152c-35.081 62.77-82.451 114.687-139.225 153.977 86.668-78.036 77.117-73.152 66.425-73.152-18.977 0-34.36-15.384-34.36-34.36 0-8.285 2.932-15.885 7.816-21.819 53.517-64.878 86.009-148.929 86.033-240.57-0.291-209.086-169.805-378.6-378.981-378.891-209.232 0.255-378.753 169.798-378.971 378.987-0 0.040-0 0.062-0 0.085 0 94.506 34.619 180.927 91.867 247.272 4.721 5.478 7.846 13.298 7.846 21.848 0 18.964-15.373 34.337-34.337 34.337-10.414 0-19.745-4.636-26.042-11.956-67.162-77.908-108.049-180.041-108.070-291.723 0.291-247.036 200.551-447.295 447.652-447.586 247.157 0.291 447.417 200.551 447.708 447.652 0 0.105 0 0.197 0 0.288 0 79.097-20.519 153.402-56.524 217.881zM563.84 379.2c0-25.308-20.516-45.824-45.824-45.824s-45.824 20.516-45.824 45.824c0 0 0 0 0 0l-0 406.976c1.323 24.279 21.333 43.465 45.824 43.465 24.491 0 44.501-19.186 45.819-43.348l0.005-407.093z"  horiz-adv-x="1024" />

    
    <glyph glyph-name="shouye" unicode="&#58901;" d="M843.51176-128H707.69576c-41.736 0-75.68 33.144-75.68 73.856V186.344c0 15.6-12.616 28.312-28.168 28.312H422.35976c-15.544 0-28.192-12.712-28.192-28.312v-240.488c0-40.72-33.128-73.856-73.832-73.856H186.51976c-40.704 0-73.832 33.144-73.832 73.856l0.192 448.16H30.54376a30.56 30.56 0 0 0-28.008 18.352 30.504 30.504 0 0 0 5.64 32.976l484.88 441.344c11.576 12.408 33.176 12.408 44.744 0l481.648-437.832a30.424 30.424 0 0 0 12.048-24.296 30.52 30.52 0 0 0-31.136-30.544h-82.328v-448.16c-0.008-40.712-33.448-73.856-74.52-73.856zM422.35976 275.752h181.496c49.216 0 89.256-40.096 89.256-89.408v-240.488c0-6.68 6.944-12.768 14.584-12.768h135.816c7.4 0 13.424 5.728 13.424 12.768V424.56a30.52 30.52 0 0 0 30.544 30.528h42.752L515.42376 821.04 100.67176 455.096h42.776a30.56 30.56 0 0 0 30.552-30.56l-0.208-478.704c0-7.008 5.712-12.736 12.736-12.736h133.816c7.024 0 12.736 5.728 12.736 12.768v240.48c0 49.312 40.04 89.408 89.28 89.408z"  horiz-adv-x="1031" />

    
    <glyph glyph-name="transfer" unicode="&#59364;" d="M40.67299907-106.18008097999996h23.56635004c0 195.60070539 259.22985052 360.56515571 582.08884615 372.34833074v-228.59359545l379.41823576 379.41823575-379.41823576 381.77487076v-233.30686546C290.47630956 541.89454531 17.10664903 252.02843972999995 17.10664903-106.18008097999996h23.56635004z m652.78789629 624.50827624v164.96445034L959.76065089 416.99289006 693.46089536 150.69313453999996V313.30094986999995h-23.56635005c-249.80331049-4.71327001-464.2570959-91.90876518-572.66230613-221.52369046 80.12559015 242.73340549 304.00591559 417.12439583 575.01894114 424.19430086l21.20971504 2.35663499z"  horiz-adv-x="1024" />

    
    <glyph glyph-name="file" unicode="&#59091;" d="M867 514.8l-307.2 307.2h-402.8v-876h710v568.8zM609.8 701.3l136.5-136.5h-136.5v136.5zM817-4h-610v776h332.1l20.7-20.7v-236.5h236.5l20.7-20.7v-498.1zM475.5 519.2h-170v50h170v-50zM305.5 424.3h413v-50h-413v50zM305.5 279.4h413v-50h-413v50z"  horiz-adv-x="1024" />

    
    <glyph glyph-name="jiantou" unicode="&#58898;" d="M511.31 226.6a61.19 61.19 0 0 0-43.25 17.79l-237.12 237.2a35 35 0 0 0 49.55 49.55l230.89-230.9 230.9 230.89a35 35 0 1 0 49.55-49.55L554.7 244.46a61.41 61.41 0 0 0-43.39-17.86z"  horiz-adv-x="1024" />

    
    <glyph glyph-name="gengduo" unicode="&#58988;" d="M81.28 673.984h861.44c27.264 0 49.28 21.504 49.28 48s-22.016 48-49.28 48H81.28c-27.2 0-49.28-21.504-49.28-48s22.08-48 49.28-48zM942.72 433.984H81.28c-27.264 0-49.28-21.504-49.28-48s22.016-48 49.28-48h861.44c27.264 0 49.28 21.504 49.28 48s-22.144 48-49.28 48zM942.72 94.016H81.28c-27.2 0-49.28-21.504-49.28-48s22.08-48 49.28-48h861.44c27.264 0 49.28 21.504 49.28 48s-22.016 48-49.28 48z"  horiz-adv-x="1024" />

    
    <glyph glyph-name="daibanshixiang" unicode="&#58928;" d="M623.152508 213.630016H269.135993v-89.153122h354.016515V213.630016z m0 193.585398H269.135993v-89.301464h354.016515v89.301464z m-133.507171 191.360278H269.135993v-89.153122h220.509344v89.153122z m60.152397 178.899609H120.14199v-816.173838h652.019354V376.360423h89.18279v-428.112994a76.232595 76.232595 0 0 0-76.202926-76.099088h-677.919745a76.21776 76.21776 0 0 0-76.188092 76.099088V790.529335a76.21776 76.21776 0 0 0 76.188092 76.099087h442.635608v-89.153121z m437.39916-21.212806L853.838065 890.214689a14.166594 14.166594 0 0 1-25.218022-5.488628l-18.171809-48.952629a72.30155 72.30155 0 0 0-29.66826-33.525134l-169.109083-87.521368a16.480719 16.480719 0 0 1-4.450239-27.888164l60.523251-60.819934-99.180994-142.704331 146.442532 95.235115 69.557236-69.868753a17.266927 17.266927 0 0 1 28.704042 3.856874L906.158041 676.158192a92.965493 92.965493 0 0 0 33.287788 31.448356l43.182153 21.212806a16.065363 16.065363 0 0 1 4.568912 27.443141z"  horiz-adv-x="1024" />

    
    <glyph glyph-name="danganheji" unicode="&#58953;" d="M998.77884634 316.5V-37.875H90.125V316.5a685.18990366 685.18990366 0 0 1 58.41346179 137.46634634c18.36778821 95.08413455 25.3125 192.31009634 38.09855732 288.43269187A550.70913455 550.70913455 0 0 0 202.66826911 805.875h682.9182691a98.1995191 98.1995191 0 0 0 10.83894268-24.66346179c9.99519268-74.89903821 21.28846179-149.6682691 27.97355732-224.89182642A484.96153821 484.96153821 0 0 1 998.77884634 316.5zM191.76442276 337.33413455000004H366.16105732a30.50480732 30.50480732 0 0 0 37.06009634-31.21875 141.2307691 141.2307691 0 0 1 282.07211545-1.1682691 31.60817275 31.60817275 0 0 0 38.94230813 32.45192276H897.0745191L846.96875001 748.1754809H241.74038455l-50.04086545-410.71153821z m354.11538456 361.125h177.77163537c19.99038455 0 37.06009634-3.76442275 37.06009552-27.71394187s-17.13461545-27.71394269-37.06009552-27.64903902H365.25240366c-19.92548089 0-37.06009634 3.63461545-37.06009634 27.64903902s17.13461545 27.77884634 37.06009634 27.71394187h180.62740366z m-0.90865366-167.64663455H367.26442275c-20.70432724 0-39.46153821 2.59615366-38.9423073 28.55769268 0.45432724 24.07932724 18.23798089 26.80528821 37.90384634 26.80528821h355.5432691c20.70432724 0 39.46153821-2.53125001 38.94230732-28.49278821-0.38942276-24.1442309-18.23798089-26.93509634-37.83894187-26.87019268h-177.83653903z m-3.31009634-112.47836545h-175.24038456c-20.89903821 0-39.33173089 3.18028821-38.42307642 29.07692276 0.84375001 24.1442309 19.01682725 25.96153821 38.42307642 25.96153903h355.54326993c20.96394269 0 39.33173089-3.24519268 38.42307642-29.07692359-0.84375001-24.1442309-18.95192275-26.35096179-38.42307642-26.2860573H541.40144269z"  horiz-adv-x="1102" />

    
    <glyph glyph-name="zhuanxiangjiancha" unicode="&#59017;" d="M952.167422-115.201424a43.463154 43.463154 0 0 0-61.58846 0l-43.029534 43.072896a195.533604 195.533604 0 1 0 62.238889 60.851307l42.379105-42.350197a43.52097 43.52097 0 0 0 0-61.574006zM746.472662 213.048734a119.028624 119.028624 0 1 1 119.028624-118.956354 119.043078 119.043078 0 0 1-119.028624 118.956354z m-430.092986 17.344791h126.515792a43.477608 43.477608 0 0 0 43.361976-43.361976 42.292381 42.292381 0 0 0-43.361976-42.061117h-126.515792a42.306835 42.306835 0 0 0-43.361976 42.061117 43.492062 43.492062 0 0 0 43.361976 43.361976z m0 260.460935a43.434246 43.434246 0 1 0 0 86.868492h320.372733a43.434246 43.434246 0 0 0 0-86.868492H316.379676z m320.083653-173.447904H316.090597a43.434246 43.434246 0 0 0 0 86.868492h320.40164a43.434246 43.434246 0 1 0 0-86.868492z m173.274456 376.960111c0 43.651056 1.705571 42.061117-42.046663 42.061117h-88.588517v-12.285893c0-30.064303-10.03107-31.076083-40.109828-31.076083H315.613615c-30.078757 0-42.523644 1.011779-42.523645 31.076083v12.285893h-85.278552c-43.73778 0-42.899448 3.035338-42.899448-40.760257v-655.488537c0-43.651056-5.665965-40.760257 38.086268-40.760257h302.276335c4.798725-28.329824 19.773061-53.19069 45.862516-86.001253H158.845618c-66.936437 0-100.180618 37.435839-100.180619 104.357823V714.168636c0 66.921983 34.212599 109.272179 101.177944 109.27218h113.203665V841.363766a52.988335 52.988335 0 0 0 3.94594 19.079269l1.633301 3.468958a65.968019 65.968019 0 0 0 8.556764 13.153133l2.71735 3.035338a56.370569 56.370569 0 0 0 16.463097 11.563194A54.000114 54.000114 0 0 0 327.624882 895.999855h296.942811a53.638764 53.638764 0 0 0 21.218461-4.336197 54.534912 54.534912 0 0 0 15.566949-10.551414l3.786946-4.191658a55.055255 55.055255 0 0 0 7.588346-11.418654l1.907927-3.758038a54.679452 54.679452 0 0 0 4.495191-20.380128v-17.92295h113.247027c66.936437 0 104.068742-39.025778 104.068743-105.947762v-390.402323l-86.723952 38.158539V694.366667z"  horiz-adv-x="1024" />

    
    <glyph glyph-name="icon-" unicode="&#59101;" d="M960-128H64c-35.2 0-64 28.8-64 64V832C0 867.2 28.8 896 64 896h688c19.2 0 38.4-9.6 51.2-25.6l208-265.6c9.6-9.6 12.8-25.6 12.8-38.4V-64c0-35.2-28.8-64-64-64zM752 832H64v-896h896V566.4L752 832zM672 640H224c-19.2 0-32 12.8-32 32s12.8 32 32 32h448c19.2 0 32-12.8 32-32s-12.8-32-32-32zM800 448H224c-19.2 0-32 12.8-32 32s12.8 32 32 32h576c19.2 0 32-12.8 32-32s-12.8-32-32-32zM832-128H192v256c0 35.2 28.8 64 64 64h512c35.2 0 64-28.8 64-64v-256zM256-64h512v192H256v-192z"  horiz-adv-x="1024" />

    
    <glyph glyph-name="xitongguanli-xiugai" unicode="&#58935;" d="M979.2 806.4c-12.8 12.8-32 12.8-51.2 6.4l-441.6-57.6c-25.6-6.4-44.8-25.6-44.8-51.2v-256c0-12.8 6.4-19.2 12.8-25.6 12.8-12.8 25.6-12.8 38.4-12.8l435.2 6.4c32 0 64 19.2 64 51.2V774.4c0 12.8-6.4 25.6-12.8 32z m-51.2-345.6H492.8h-6.4V704l6.4 6.4 441.6 57.6h12.8v-307.2c0 6.4-6.4 0-19.2 0zM352 742.4l-294.4-44.8c-12.8 0-19.2-12.8-19.2-19.2v-243.2c0-6.4 0-12.8 6.4-12.8 6.4-6.4 12.8-6.4 12.8-6.4h288c19.2 0 32 12.8 32 19.2V723.2c-6.4 12.8-12.8 19.2-25.6 19.2zM928 345.6H499.2c-12.8 6.4-32 0-38.4-6.4-12.8-6.4-19.2-19.2-19.2-32V64c0-19.2 19.2-38.4 51.2-51.2l185.6-25.6c12.8 0 25.6 6.4 25.6 19.2 0 12.8-6.4 25.6-19.2 25.6l-185.6 25.6-6.4 6.4V300.8l435.2-6.4c6.4 0 12.8 0 19.2-6.4V0h-12.8l-70.4 12.8c-12.8 0-25.6-6.4-25.6-19.2 0-12.8 6.4-25.6 19.2-25.6l70.4-12.8h6.4c19.2 0 38.4 6.4 51.2 19.2 6.4 6.4 12.8 19.2 12.8 25.6V294.4c-6.4 32-38.4 44.8-70.4 51.2zM326.4 358.4h-256c-6.4 0-12.8 0-25.6-6.4-6.4-6.4-12.8-19.2-12.8-32v-198.4c0-19.2 19.2-44.8 38.4-44.8l256-38.4h6.4c12.8 0 25.6 6.4 32 12.8 6.4 6.4 12.8 12.8 12.8 32V313.6c-6.4 19.2-25.6 44.8-51.2 44.8z m0-268.8L76.8 128V307.2H320l6.4-217.6z"  horiz-adv-x="1024" />

    
    <glyph glyph-name="fukuan" unicode="&#59039;" d="M544.69640466 416.69640466h245.22303869a49.04460775 49.04460775 0 0 1 0 98.08921547h-248.49267871l243.26125438 243.26125438a49.04460775 49.04460775 0 0 1-69.38177122 69.31637944l-223.25105442-223.25105442L268.73874562 827.36325395a49.04460775 49.04460775 0 0 1-69.31637944-69.31637944L442.68362055 514.78562013H234.08055665a49.04460775 49.04460775 0 0 1 0-98.08921547H446.60718916V253.21437987000002H234.08055665a49.04460775 49.04460775 0 0 1 0-98.08921548H446.60718916v-179.83022937a49.04460775 49.04460775 0 1 1 98.0892155 0V155.12516439h245.22303869a49.04460775 49.04460775 0 1 1 0 98.08921548H544.69640466v163.48202479z"  horiz-adv-x="1024" />

    
    <glyph glyph-name="xitongtongzhi" unicode="&#58903;" d="M456.40625 613.59375c-13.96875 0-25.3125 11.34375-25.3125 25.3125v79.875c0 27.84375 22.6875 50.53125 50.53125 50.53125h60.9375c27.84375 0 50.53125-22.6875 50.53125-50.53125v-79.5c0-13.96875-11.34375-25.3125-25.3125-25.3125s-25.3125 11.34375-25.3125 25.3125V718.6875h-60.75v-79.78125c0-13.96875-11.34375-25.3125-25.3125-25.3125zM292.4375 498.375c-6.46875 0-12.9375 2.4375-17.90625 7.40625l-57.1875 57.1875c-19.6875 19.6875-19.6875 51.75 0 71.4375l43.125 43.125c9.5625 9.5625 22.21875 14.8125 35.71875 14.8125 13.5 0 26.15625-5.25 35.71875-14.8125l56.71875-56.71875c9.84375-9.84375 9.84375-25.875 0-35.8125-9.84375-9.84375-25.875-9.84375-35.8125 0l-56.625 56.625-43.03125-42.9375 57.09375-57.09375c9.84375-9.84375 9.84375-25.875 0-35.8125-4.875-4.875-11.34375-7.40625-17.8125-7.40625zM258.21875 301.6875H176.375c-27.84375 0-50.53125 22.6875-50.53125 50.53125v60.9375c0 27.84375 22.6875 50.53125 50.53125 50.53125h81.28125c13.96875 0 25.3125-11.34375 25.3125-25.3125s-11.34375-25.3125-25.3125-25.3125H176.375v-60.75h81.75c13.96875 0 25.3125-11.34375 25.3125-25.3125s-11.25-25.3125-25.21875-25.3125zM296.375 73.125c-12.9375 0-25.875 4.96875-35.71875 14.8125l-43.125 43.125c-19.6875 19.6875-19.6875 51.75 0 71.4375l58.125 58.125c9.84375 9.84375 25.875 9.84375 35.8125 0 9.84375-9.84375 9.84375-25.875 0-35.8125l-58.03125-58.03125 42.9375-42.9375 58.21875 58.21875c9.84375 9.84375 25.875 9.84375 35.8125 0 9.84375-9.84375 9.84375-25.875 0-35.8125l-58.3125-58.3125a50.4065625 50.4065625 0 0 0-35.71875-14.8125zM542.9375-3.65625h-60.9375c-27.84375 0-50.53125 22.6875-50.53125 50.53125v82.3125c0 13.96875 11.34375 25.3125 25.3125 25.3125s25.3125-11.34375 25.3125-25.3125v-82.21875h60.75V129c0 13.96875 11.34375 25.3125 25.3125 25.3125s25.3125-11.34375 25.3125-25.3125v-82.125c0-27.84375-22.6875-50.53125-50.53125-50.53125zM728.375 73.3125c-13.5 0-26.15625 5.25-35.71875 14.8125L634.90625 145.875c-9.84375 9.84375-9.84375 25.875 0 35.8125 9.84375 9.84375 25.875 9.84375 35.8125 0l57.65625-57.65625 42.9375 42.9375-18.9375 18.9375c-9.84375 9.84375-9.84375 25.875 0 35.8125 9.84375 9.84375 25.875 9.84375 35.8125 0l18.9375-19.03125c9.5625-9.5625 14.8125-22.21875 14.8125-35.71875 0-13.5-5.25-26.15625-14.8125-35.71875l-43.125-43.125c-9.46875-9.5625-22.125-14.8125-35.625-14.8125z m43.03125 93.5625zM848.1875 301.96875h-80.53125c-13.96875 0-25.3125 11.34375-25.3125 25.3125s11.34375 25.3125 25.3125 25.3125h80.4375v60.75h-79.96875c-13.96875 0-25.3125 11.34375-25.3125 25.3125s11.34375 25.3125 25.3125 25.3125h80.0625c27.84375 0 50.53125-22.6875 50.53125-50.53125v-60.9375c0-27.84375-22.6875-50.53125-50.53125-50.53125z m0 111.46875zM732.6875 499.40625c-6.46875 0-12.9375 2.4375-17.90625 7.40625-9.84375 9.84375-9.84375 25.875 0 35.8125l56.34375 56.34375-42.9375 42.9375-56.25-56.25c-9.84375-9.84375-25.875-9.84375-35.8125 0-9.84375 9.84375-9.84375 25.875 0 35.8125l56.25 56.25c9.5625 9.5625 22.21875 14.8125 35.71875 14.8125 13.5 0 26.15625-5.25 35.71875-14.8125l43.125-43.125c9.5625-9.5625 14.8125-22.21875 14.8125-35.71875 0-13.5-5.25-26.15625-14.8125-35.71875L750.59375 506.8125c-4.96875-4.875-11.4375-7.40625-17.90625-7.40625zM654.03125 578.25c-4.6875 0-9.46875 1.3125-13.6875 4.03125-23.90625 15.375-50.0625 26.25-77.8125 32.15625-13.6875 2.90625-22.40625 16.40625-19.40625 30.09375s16.40625 22.40625 30.09375 19.40625c33.75-7.21875 65.53125-20.34375 94.59375-39.09375 11.71875-7.59375 15.09375-23.25 7.59375-34.96875-4.96875-7.5-13.125-11.625-21.375-11.625zM768.125 413.4375c-11.71875 0-22.21875 8.15625-24.75 20.0625-5.90625 27.65625-16.59375 53.8125-31.96875 77.625-7.59375 11.71875-4.125 27.46875 7.59375 34.96875 11.8125 7.59375 27.46875 4.125 34.96875-7.59375 18.65625-28.96875 31.6875-60.75 38.8125-94.40625 2.90625-13.6875-5.8125-27.09375-19.5-30-1.6875-0.5625-3.46875-0.65625-5.15625-0.65625zM568.0625 103.6875c-11.625 0-22.125 8.15625-24.75 19.96875-2.90625 13.6875 5.71875 27.09375 19.40625 30.09375 27.1875 5.8125 52.875 16.40625 76.40625 31.40625 11.8125 7.5 27.46875 4.03125 34.96875-7.78125 7.5-11.8125 4.03125-27.46875-7.78125-34.96875-28.59375-18.1875-59.90625-31.03125-92.90625-38.15625-1.78125-0.375-3.5625-0.5625-5.34375-0.5625zM293.5625 217.40625c-8.34375 0-16.40625 4.125-21.28125 11.53125-18.375 28.40625-31.40625 59.53125-38.8125 92.53125-3 13.6875 5.53125 27.1875 19.21875 30.1875 13.6875 3 27.1875-5.53125 30.1875-19.21875 6.09375-27.09375 16.78125-52.6875 31.875-76.125 7.59375-11.71875 4.21875-27.375-7.5-34.96875-4.21875-2.625-9-3.9375-13.6875-3.9375zM370.71875 577.59375c-8.25 0-16.40625 4.03125-21.28125 11.53125-7.59375 11.71875-4.3125 27.375 7.40625 35.0625 28.875 18.75 60.46875 32.0625 94.03125 39.46875 13.6875 3 27.1875-5.625 30.1875-19.21875 3-13.6875-5.625-27.1875-19.21875-30.1875-27.5625-6.09375-53.625-16.96875-77.34375-32.4375-4.21875-2.90625-9-4.21875-13.78125-4.21875zM257.65625 413.0625c-1.78125 0-3.46875 0.1875-5.25 0.5625-13.6875 2.90625-22.40625 16.3125-19.5 30 7.03125 33.28125 19.875 64.78125 38.15625 93.65625 7.5 11.8125 23.15625 15.28125 34.96875 7.78125 11.8125-7.5 15.28125-23.15625 7.78125-34.96875-15.09375-23.71875-25.59375-49.59375-31.40625-76.96875-2.53125-11.90625-13.03125-20.0625-24.75-20.0625zM456.78125 103.875c-1.78125 0-3.65625 0.1875-5.4375 0.5625-32.90625 7.21875-64.03125 20.0625-92.4375 38.25-11.8125 7.5-15.1875 23.15625-7.6875 34.96875 7.5 11.8125 23.15625 15.1875 34.96875 7.6875 23.34375-15 48.9375-25.59375 76.03125-31.5 13.6875-3 22.3125-16.5 19.3125-30.1875-2.625-11.71875-13.125-19.78125-24.75-19.78125zM512.28125 236.15625c-80.90625 0-146.625 65.8125-146.625 146.625 0 80.90625 65.8125 146.625 146.625 146.625 80.90625 0 146.625-65.8125 146.625-146.625s-65.8125-146.625-146.625-146.625z m0 242.71875c-52.96875 0-96-43.125-96-96 0-52.96875 43.125-96 96-96 52.96875 0 96 43.125 96 96 0 52.96875-43.03125 96-96 96z"  horiz-adv-x="1024" />

    
    <glyph glyph-name="shiyongwendang" unicode="&#60262;" d="M288 576h448a32 32 0 0 1 0 64H288a32 32 0 0 1 0-64zM288 352h448a32 32 0 0 1 0 64H288a32 32 0 0 1 0-64zM544 192H288a32 32 0 0 1 0-64h256a32 32 0 0 1 0 64zM896 763.072C896 818.72 851.552 864 796.928 864H227.04C172.448 864 128 818.72 128 763.072v-758.144C128-50.72 172.448-96 227.04-96h435.008c1.568 0 2.912 0.672 4.416 0.896 8.96-1.6 18.464 0.256 25.984 6.528l192 160a31.424 31.424 0 0 1 10.816 27.2c0.16 1.184 0.736 2.208 0.736 3.424V763.072zM192 4.928V763.072C192 783.424 207.712 800 227.04 800h569.888C816.288 800 832 783.424 832 763.072V160h-96a96 96 0 0 1-96-96v-96H227.04C207.712-32 192-15.424 192 4.928zM814.016 96L704 4.32V64a32 32 0 0 0 32 32h78.016z"  horiz-adv-x="1024" />

    
    <glyph glyph-name="loufang" unicode="&#59528;" d="M946.176 6.42H817.201V766.309c0 22-18 40-40 40h-500c-22 0-40-18-40-40V6.42H101.808c-13.2 0-24-10.8-24-24v-16c0-13.2 10.8-24 24-24h301.63c2.791-0.622 5.685-0.961 8.657-0.961h240a39.75 39.75 0 0 1 8.657 0.961h285.425c13.2 0 24 10.8 24 24v16c-0.001 13.2-10.801 24-24.001 24zM631.167 663.516c0 6.6 5.4 12 12 12h40c6.6 0 12-5.4 12-12v-40c0-6.6-5.4-12-12-12h-40c-6.6 0-12 5.4-12 12v40z m0-128c0 6.6 5.4 12 12 12h40c6.6 0 12-5.4 12-12v-40c0-6.6-5.4-12-12-12h-40c-6.6 0-12 5.4-12 12v40z m-129 128c0 6.6 5.4 12 12 12h40c6.6 0 12-5.4 12-12v-40c0-6.6-5.4-12-12-12h-40c-6.6 0-12 5.4-12 12v40z m0-128c0 6.6 5.4 12 12 12h40c6.6 0 12-5.4 12-12v-40c0-6.6-5.4-12-12-12h-40c-6.6 0-12 5.4-12 12v40z m-129 129c0 6.6 5.4 12 12 12h40c6.6 0 12-5.4 12-12v-40c0-6.6-5.4-12-12-12h-40c-6.6 0-12 5.4-12 12v40z m0-128c0 6.6 5.4 12 12 12h40c6.6 0 12-5.4 12-12v-40c0-6.6-5.4-12-12-12h-40c-6.6 0-12 5.4-12 12v40zM628.098 6.42V317.647H436.355V6.42h-64.261V341.459c0 22 18 40 40 40h240c22 0 40-18 40-40V6.42h-63.996z"  horiz-adv-x="1024" />

    
    <glyph glyph-name="weixiu" unicode="&#59012;" d="M607.36 870.50666667v-310.82666667H426.66666667V868.58666667L96.32 702.72v-393.92l163.2-95.89333333v-337.81333334h320.10666667v89.6H349.12V264.10666667l-163.2 96V647.46666667L337.06666667 723.30666667v-253.22666667h359.89333333V722.77333333l143.25333333-74.77333333v-287.68l-168.85333333-97.49333333v-387.73333334h89.6v336l168.85333333 97.49333334V702.29333333z"  horiz-adv-x="1024" />

    
    <glyph glyph-name="rizhi" unicode="&#58900;" d="M958.47348149 695.50637037L778.74512592 871.24835555c-14.92041482 14.92041482-35.30785186 22.77925926-55.69528888 22.77925927H151.85991111c-61.16231111 0-110.59330369-50.22826667-110.5933037-111.39057778v-797.27407408c0-61.16231111 49.43099258-111.39057778 110.5933037-111.39057778h719.48290371c61.16231111 0 111.39057778 50.22826667 111.39057776 111.39057778V638.21653333c0 21.18471111-9.33949631 42.36942222-24.25991109 57.28983704zM904.25884445-14.637037039999996c0-17.99561482-14.92041482-32.91602963-32.91602963-32.91602963H151.85991111c-17.99561482 0-32.11875555 14.92041482-32.11875556 32.91602963V782.63703704c0 17.99561482 14.12314074 32.91602963 32.11875556 32.91602963l517.0891852-0.79727408v-138.83958517c0-65.14868149 52.62008889-117.65487408 117.65487406-117.65487409h117.65487408v-572.89837037z m0 651.25902222H786.60397037c-21.98198518 0-39.18032592 17.31223704-39.18032592 39.18032593v116.17422222l156.94909629-153.76v-1.59454815zM707.90162963 425.91383704H315.52888889c-21.64029631 0-39.18032592-17.54002963-39.18032593-39.18032593s17.54002963-39.18032592 39.18032593-39.18032593H707.90162963c21.64029631 0 39.18032592 17.54002963 39.18032592 39.18032593S729.54192592 425.91383704 707.90162963 425.91383704zM707.90162963 190.49019257999998H315.52888889c-21.64029631 0-39.18032592-17.54002963-39.18032593-39.18032591s17.54002963-39.18032592 39.18032593-39.18032593H707.90162963c21.64029631 0 39.18032592 17.54002963 39.18032592 39.18032593S729.54192592 190.49019257999998 707.90162963 190.49019257999998z"  horiz-adv-x="1024" />

    
    <glyph glyph-name="fuwufangquerenyushangbao" unicode="&#58893;" d="M926.647887 769.802817h-288.450704c0 72.112676-57.690141 126.197183-126.197183 126.197183s-126.197183-57.690141-126.197183-126.197183h-288.450704c-18.028169 0-32.450704-14.422535-32.450705-32.450704v-829.295775c0-18.028169 14.422535-32.450704 32.450705-32.450704h829.295774c18.028169 0 32.450704 14.422535 32.450705 32.450704v829.295775c0 18.028169-14.422535 32.450704-32.450705 32.450704zM512 831.098592c36.056338 0 64.901408-28.84507 64.901408-64.901409s-28.84507-64.901408-64.901408-64.901408-64.901408 28.84507-64.901408 64.901408 28.84507 64.901408 64.901408 64.901409z m382.197183-894.197184H126.197183V704.901408H252.394366V607.549296c0-18.028169 14.422535-32.450704 32.450704-32.450704h447.098592c18.028169 0 32.450704 14.422535 32.450704 32.450704V704.901408h126.197183v-768zM786.028169 95.549296v-32.450704H234.366197v32.450704l68.507042 140.619718h137.014085v-72.112676H576.901408v72.112676h140.619719zM353.352113 337.126761l155.042253 155.042253 155.042254-155.042253h-118.985916v-137.014085h-68.507042v137.014085z"  horiz-adv-x="1024" />

    
    <glyph glyph-name="xiazai" unicode="&#58892;" d="M511.985404-92.20397L354.645856 65.136795l31.692198 31.692197 125.64735-125.646134 125.647351 125.646134 31.693414-31.692197zM489.574876 346.83562h44.821057v-390.984362h-44.821057zM802.862512 397.493753a292.347627 292.347627 0 0 1 3.606362 45.781943c0 160.264776-129.920251 290.18381-290.183811 290.183811-156.325145 0-283.755607-123.617328-289.927168-278.428166-98.420231-18.360213-172.926572-104.690313-172.926573-208.435553 0-117.112497 94.937933-212.051646 212.051646-212.051646l0.254209 0.002433v-0.002433h50.690974v44.821058H265.760287v0.003649c-0.09244 0-0.184879-0.003649-0.278535-0.003649-44.669019 0-86.664586 17.394462-118.249748 48.98084-31.585162 31.585162-48.980841 73.580729-48.980841 118.249748s17.394462 86.664586 48.980841 118.249748c22.566216 22.566216 50.447712 37.88322 80.820212 44.794298a168.56853 168.56853 0 0 0 37.429536 4.186542c2.410728 0 4.811726-0.060816 7.205426-0.161769a249.539565 249.539565 0 0 0-1.764867 29.609873c0 5.121885 0.173932 10.217012 0.484091 15.286596 3.651365 59.787763 28.659934 115.491154 71.381639 158.211643 46.342662 46.342662 107.959757 71.865731 173.498239 71.86573 65.539698 0 127.155576-25.521852 173.498238-71.86573 46.342662-46.342662 71.865731-107.959757 71.865731-173.498239 0-16.313162-1.583637-32.383062-4.674283-48.035767a242.757415 242.757415 0 0 0-12.339474-42.018677h43.569473v-0.029192c0.211638 0.001216 0.420844 0.013379 0.632482 0.01338 1.11779 0 2.233147-0.014596 3.346071-0.041355 35.320453-0.841687 68.400461-14.992248 93.471062-40.062849 25.861203-25.861203 40.102987-60.24388 40.102987-96.817133 0-36.573253-14.241785-70.95593-40.102987-96.817133-25.861203-25.861203-60.245096-40.102987-96.817133-40.102987l-0.063248 0.001216v-0.001216h-72.483617v-44.821057h76.492577v0.049868c98.550376 2.099353 177.796681 82.63738 177.796682 181.691309-0.002433 95.656772-73.899403 174.050444-167.718329 181.210866z"  horiz-adv-x="1024" />

    
    <glyph glyph-name="peizhiguanli" unicode="&#58883;" d="M985.31555555 174.89161481999997H590.03638518c-8.8594963 0-16.26263703 7.16041482-16.384 16.0199111v37.98660741c0.12136297 8.8594963 7.40314075 16.14127408 16.384 16.01991112H985.31555555c8.8594963 0 16.14127408-7.16041482 16.26263704-16.01991112v-37.98660741c-0.12136297-8.8594963-7.28177778-16.14127408-16.26263704-16.0199111z m0-140.41694815H590.03638518c-8.8594963 0-16.26263703 7.16041482-16.384 16.01991111v37.9866074c0.12136297 8.8594963 7.40314075 16.14127408 16.384 16.01991112H985.31555555c8.8594963 0 16.14127408-7.16041482 16.26263704-16.01991112v-37.86524443c-0.12136297-8.8594963-7.28177778-16.14127408-16.26263704-16.14127408z m0-140.41694815H590.03638518c-8.8594963 0-16.26263703 7.16041482-16.384 16.01991111v37.9866074c0.12136297 8.8594963 7.40314075 16.14127408 16.384 16.01991112H985.31555555c8.8594963 0 16.14127408-7.16041482 16.26263704-16.01991112v-37.86524444c-0.12136297-8.98085925-7.28177778-16.01991111-16.26263704-16.14127407zM502.29096297 251.22891851999998v-71.24005927c-115.17345185 0-208.86565925 92.23585185-208.86565927 205.58885927S387.11751111 591.16657778 502.29096297 591.16657778c115.17345185 0 208.86565925-92.23585185 208.86565925-205.58885926 0-24.02986667-4.12634075-47.81700741-12.50038519-70.26915555h-80.34228148c13.34992592 20.99579259 20.38897778 45.38974815 20.38897778 70.26915555 0 73.91004445-61.2882963 134.10607408-136.53333333 134.10607407-75.12367408 0-136.41197037-60.19602963-136.41197037-134.10607407 0.12136297-74.15277037 61.2882963-134.3488 136.53333334-134.3488z m-17.23354075-285.68841482c4.49042963 0.12136297 8.8594963-1.69908148 12.25765926-4.85451852 3.15543703-3.15543703 5.09724445-7.64586667 5.09724444-12.13629629v-37.37979259c-0.12136297-9.34494815-7.76722963-16.99081482-17.23354074-16.99081482h-68.08462221c-32.40391111-0.36408889-59.46785185 25.00077037-61.16693334 57.28331852l-9.95176296 72.0896c-29.85528889 12.50038518-58.0114963 28.39893333-83.98317037 47.57428148l-68.20598519-27.42802963c-29.00574815-14.68491852-64.44373333-4.49042963-81.07045926 23.42305185l-85.56088888 145.27146667c-16.384 27.79211852-7.64586667 63.71555555 19.90352592 80.82773333l58.49694814 44.54020741a358.62755555 358.62755555 0 0 0 0 95.39128889L47.17985185 477.69220741c-27.30666667 16.99081482-36.16616297 52.67152592-20.02488888 80.46364444l85.43952592 145.5141926c16.62672592 27.91348148 51.94334815 38.10797037 80.94909629 23.5444148l68.32734815-27.42802962c25.85031111 19.29671111 54.24924445 35.19525925 83.98317037 47.57428148l9.95176297 71.96823704c1.69908148 32.40391111 28.64165925 57.76877037 61.04557036 57.40468148h170.75768889c32.768 0 59.58921482-25.12213333 61.04557038-57.28331852l9.95176295-72.0896c29.85528889-12.37902222 58.13285925-28.39893333 84.10453334-47.57428148l68.32734816 27.30666667c29.00574815 14.44219259 64.32237037 4.36906667 80.94909628-23.42305185l85.1968-145.39282963c16.384-27.79211852 7.76722963-63.59419259-19.78216295-80.82773334l-58.25422223-44.41884445c4.12634075-31.67573333 4.12634075-63.83691852 0-95.39128888l29.4912-22.45214815h-106.67804444l2.54862222 13.47128889c7.16041482 37.37979259 7.16041482 76.09457778 0 113.59573333l-3.88361481 21.11715556 89.08041481 67.8418963-76.21594074 129.97973333-103.15851852-43.56930371-16.86945185 14.19946667c-29.73392592 24.63668148-63.59419259 43.81202963-100.00308149 56.55514074l-20.51034073 7.40314074-15.4130963 109.59075556H426.92456297l-15.17037038-109.83348149-20.51034074-7.40314074c-36.53025185-12.86447408-70.39051852-32.03982222-100.12444444-56.6765037l-16.74808889-13.95674073-104.12942222 41.99158517-75.3664-128.15928889 89.08041481-67.84189628-3.88361481-21.23851853c-3.51952592-18.6898963-5.33997037-37.62251852-5.46133333-56.6765037 0.12136297-19.05398518 1.94180741-38.10797037 5.33997036-56.79786667l3.76225185-21.23851852-88.95905185-67.8418963 76.45866667-129.97973333 103.03715555 43.56930371 16.99081482-14.07810371c29.73392592-24.63668148 63.59419259-43.81202963 100.00308148-56.55514073l20.51034074-7.40314075 15.17037038-109.83348147h58.13285925z m0 0"  horiz-adv-x="1024" />

    
    <glyph glyph-name="lingdang1" unicode="&#59121;" d="M928 64H96c-17.6 0-32 14.4-32 32s14.4 32 32 32h832c17.6 0 32-14.4 32-32s-14.4-32-32-32z m-96 0H192c-17.6 0-32 14.4-32 32V416c0 193.6 158.4 352 352 352s352-158.4 352-352v-320c0-17.6-14.4-32-32-32z m-608 64h576V416c0 158.4-129.6 288-288 288S224 574.4 224 416v-288z m288-192c-88 0-160 72-160 160 0 17.6 14.4 32 32 32s32-14.4 32-32c0-52.8 43.2-96 96-96s96 43.2 96 96c0 17.6 14.4 32 32 32s32-14.4 32-32c0-88-72-160-160-160z m0 800c-17.6 0-32 14.4-32 32V832c0 17.6 14.4 32 32 32s32-14.4 32-32v-64c0-17.6-14.4-32-32-32z"  horiz-adv-x="1024" />

    
    <glyph glyph-name="jichuxinxi" unicode="&#59044;" d="M827.6 680.4c73.26 0 103.02-27.24 103.02-93.84v-624.54H284.84V680.4h542.76m0 58.02H280.46c-29.58 0-53.58-22.86-53.58-50.7v-733.08c0-27.78 24.12-50.64 53.58-50.64h654.36c29.52 0 53.58 22.86 53.58 50.7V586.56c0.06 87.72-44.82 151.86-160.8 151.86z m0 0M933.74 535.14a18.06 18.06 0 0 0-11.82 4.2c-46.5 36.66-97.74 33.06-98.1 33.06a19.32 19.32 0 0 0-15.24 5.58 19.2 19.2 0 0 0-5.76 14.94c3.66 57.24-53.58 84.84-54.12 85.08a19.38 19.38 0 0 0-9.24 25.74c4.68 9.6 16.2 13.8 25.8 9.18 3.06-1.32 68.7-33.24 75.84-102.3 24-1.92 65.52-10.02 104.88-40.92a19.2 19.2 0 0 0 3.18-27.06 19.32 19.32 0 0 0-15.42-7.5z m-129-47.46H418.46a19.2 19.2 0 1 0 0 38.4h386.28a19.2 19.2 0 1 0 0-38.4z m0-203.52H418.46a19.2 19.2 0 1 0 0 38.34h386.28a19.2 19.2 0 1 0 0-38.34z m0-201.6H418.46a19.2 19.2 0 1 0 0 38.4h386.28a19.2 19.2 0 1 0 0-38.4z m0 0M226.88 10.200000000000045H109.1C66.5 10.200000000000045 32 44.940000000000055 32 87.60000000000002V786.84C32 829.26 66.5 864 109.1 864H602c89.64 0 149.4-42.24 167.82-118.8a28.86 28.86 0 0 0-21.3-34.98 28.98 28.98 0 0 0-34.92 21.3c-12.06 50.1-48.54 74.46-111.3 74.46h-493.2a19.5 19.5 0 0 1-19.32-19.38v-699.24c0-10.56 8.76-19.38 19.32-19.38h117.78a28.98 28.98 0 0 0 0-57.78z m0 0"  horiz-adv-x="1024" />

    
    <glyph glyph-name="wenjianjia" unicode="&#58955;" d="M861.9 52.5c0-31.1-25.2-56.2-56.2-56.2H103.5l98.3 454.2c0 31 25 56.2 56.1 56.2h646.2c31 0 56.1-25.2 56.1-56.2l-98.3-398zM215.8 548.9h632v55.2c0 31-25.2 56.2-56.2 56.2h-337v50.9c0 31-25.2 56.2-56.2 56.2H117.6c-31 0-56.2-25.2-56.2-56.2v-658.6l98.2 440.2c0 30.9 25.2 56.1 56.2 56.1z m0 0"  horiz-adv-x="1024" />

    
    <glyph glyph-name="baocun1" unicode="&#59702;" d="M814.805 768a51.179 51.179 0 0 0 51.179-51.179V51.99a51.179 51.179 0 0 0-51.179-51.157H201.173a51.179 51.179 0 0 0-51.178 51.157V716.821A51.179 51.179 0 0 0 201.173 768h613.654zM329.024 461.163a51.093 51.093 0 0 0-51.179 51.093V716.843h-76.672v-664.854h613.76V716.821H738.22v-204.48a51.179 51.179 0 0 0-51.179-51.178H329.024z m0 51.093h357.995V716.843H329.024v-204.587z m357.91-204.501a25.557 25.557 0 1 0 0.085-51.072H329.024a25.536 25.536 0 1 0 0 51.072h357.91z"  horiz-adv-x="1024" />

    
    <glyph glyph-name="yinzhang" unicode="&#59029;" d="M875.5-32h-727c-28.4 0-51.5 23-51.5 51.5h830c0-28.5-23.1-51.5-51.5-51.5zM926.4 38.5H97.6V186.7c0 25 9.9 47 28.7 63.6 13.7 12.2 32.4 21.7 57 29.2l1 0.3L317 310.5c52.7 16.3 59.8 36.1 59.8 53.3v88.8c0 5.5-2.2 10.5-6.2 14.3-23.8 22.2-42.3 49.9-53.5 80.1-11.9 32.2-15.6 66.1-10.9 100.8 6.1 45 27.7 87.5 60.8 119.8 33 32.3 76.1 52.9 121.1 57.9 30.4 3.4 60.3 0.4 88.9-8.9 27.4-9 52.2-23.3 73.8-42.6 44.1-39.4 69.4-95.9 69.4-155 0-28.7-5.8-56.6-17.2-82.7-11-25.2-26.7-47.7-46.6-66.9-5.7-5.5-8.8-12.5-8.8-19.7v-85.8c0-16.4 4.7-35.5 60-53.3l133.1-30.8 1.5-0.5c19.3-6.7 41.2-15.6 57.5-30.1 18-16.1 27.1-37.1 27-62.4v-148.3z m-770.8 58h712.8v90.3c0 13.4-2.9 22.7-44.1 37.2L692 254.6l-1.1 0.4c-30.8 9.8-52.7 21.1-68.8 35.4-21.7 19.3-32.7 44-32.7 73.5v85.8c0 23.1 9.4 45 26.6 61.5 29.7 28.5 46 66.8 46 107.8 0 42.6-18.2 83.4-50 111.8-32.3 28.8-74 42-117.5 37.1-66.8-7.5-121.8-61.3-130.9-127.9-6.7-49.3 10.2-96.9 46.4-130.6 15.7-14.6 24.7-35.3 24.7-56.7v-88.8c0-29.5-11.2-54.4-33.4-74-16.4-14.5-38.7-26-68.4-35l-1-0.3-1-0.2-131.7-30.5c-43.6-13.5-43.6-29.4-43.6-37.1v-90.3z"  horiz-adv-x="1024" />

    
    <glyph glyph-name="xianshi_quxiao" unicode="&#58910;" d="M512 768c211.2 0 384-172.8 384-384s-172.8-384-384-384-384 172.8-384 384 172.8 384 384 384m0 64C262.4 832 64 633.6 64 384s198.4-448 448-448 448 198.4 448 448-198.4 448-448 448zM646.4 563.2L512 428.8 377.6 563.2c-12.8 12.8-32 12.8-44.8 0s-12.8-32 0-44.8L467.2 384l-134.4-134.4c-12.8-12.8-12.8-32 0-44.8s32-12.8 44.8 0L512 339.2l134.4-134.4c12.8-12.8 32-12.8 44.8 0s12.8 32 0 44.8L556.8 384l134.4 134.4c12.8 12.8 12.8 32 0 44.8s-32 12.8-44.8 0z"  horiz-adv-x="1024" />

    
    <glyph glyph-name="chakan-copy" unicode="&#58923;" d="M576.5-34.200000000000045H163.1c-52.9 0-96 43.1-96 96v672c0 52.9 43.1 96 96 96h672c52.9 0 96-43.1 96-96V319c0-17.7-14.3-32-32-32s-32 14.3-32 32V733.8c0 17.6-14.4 32-32 32h-672c-17.6 0-32-14.4-32-32v-672c0-17.6 14.4-32 32-32h413.4c17.7 0 32-14.3 32-32s-14.3-32-32-32zM692.4 573.7H245.7c-17.7 0-32 14.3-32 32s14.3 32 32 32h446.7c17.7 0 32-14.3 32-32s-14.3-32-32-32zM388.5 365.79999999999995H245.7c-17.7 0-32 14.3-32 32s14.3 32 32 32h142.7c17.7 0 32-14.3 32-32 0.1-17.6-14.3-32-31.9-32zM388.5 158H245.7c-17.7 0-32 14.3-32 32s14.3 32 32 32h142.7c17.7 0 32-14.3 32-32 0.1-17.7-14.3-32-31.9-32zM624.1 103.5c-94.8 0-172 77.2-172 172s77.2 172 172 172 172-77.2 172-172-77.1-172-172-172z m0 280c-59.6 0-108-48.4-108-108s48.4-108 108-108 108 48.4 108 108-48.4 108-108 108zM820.8 31.799999999999955L710.5 142.10000000000002c-12.5 12.5-12.5 32.8 0 45.3s32.8 12.5 45.3 0L866 77.10000000000002c12.5-12.5 12.5-32.8 0-45.3s-32.7-12.5-45.2 0z"  horiz-adv-x="1024" />

    
    <glyph glyph-name="xiugai" unicode="&#58896;" d="M846.8 641L744.5 743.2c-33.1 33.1-87.9 33.1-122.5 0L149.6 270.7c-10.1-10.1-15.8-24.5-15.8-38.9L128 82v-4.3c1.4-15.8 7.2-30.2 18.8-40.3 10.1-10.1 24.5-14.4 38.9-14.4h2.9l146.9 5.8c14.4 0 27.3 7.2 37.4 17.3l472.5 472.4c36 34.6 36 89.3 1.4 122.5z m-675-574.3l4.4 124.3 118.3-118.3-122.7-6z m181.1 34.5L204.7 249.3 597 641.6l148.2-148.2-392.3-392.2z m465.8 465.5l-31.5-31.4-148.4 148.2 31.6 31.4c6 6 13.5 9 21 9s15-3 21-9l106.3-106.3c11.9-11.9 11.9-29.9 0-41.9zM907.9 76.2H457.4c-16.6 0-30-13.4-30-30s13.4-30 30-30h450.5c16.6 0 30 13.4 30 30s-13.4 30-30 30zM497.9 126.4c0-16.6 13.4-30 30-30h380c16.6 0 30 13.4 30 30s-13.4 30-30 30h-380c-16.5 0-30-13.4-30-30z"  horiz-adv-x="1024" />

    
    <glyph glyph-name="fangwu" unicode="&#58909;" d="M298.656 469.344h128v-128h-128v128z m298.688 0h128v-128h-128v128zM1006.944 460.8L512 866.144 17.056 460.8l55.456-64 55.456 42.656v-524.8h768v524.8l59.744-46.944 51.2 68.256zM469.344 0V170.656h85.344V0h-85.344z m341.312 0H640V256H384v-256H213.344V512L512 755.2 810.656 512v-512z"  horiz-adv-x="1024" />

    
    <glyph glyph-name="xinxi" unicode="&#58958;" d="M835.6 140H260c-57.4 0-104.1 46.7-104.1 104.2V621.8c0 57.4 46.7 104.1 104.1 104.1h575.6c57.4 0 104.2-46.7 104.2-104.1v-377.6c0-57.5-46.8-104.2-104.2-104.2zM260 677.7c-30.8 0-55.8-25-55.8-55.8v-377.6c0-30.8 25-55.9 55.8-55.9h575.6c30.8 0 55.9 25.1 55.9 55.9V621.8c0 30.8-25.1 55.8-55.9 55.8H260zM547.8 419.9c-14.6 0-29.1 4.4-41.3 13.3L193 661.9l28.5 39L535 472.2c7.3-5.4 18.3-5.3 25.6 0L874.2 701l28.5-39-313.6-228.8c-12.2-8.9-26.7-13.3-41.3-13.3z"  horiz-adv-x="1024" />

    
    <glyph glyph-name="zichanguanli" unicode="&#58951;" d="M801.77038222-55.18108444999996H222.45603555c-30.81784889 0-60.45468445 15.31448889-81.31128888 42.01699556-19.08849778 24.43832889-29.60042667 56.32227555-29.60042667 89.77749334V359.96899555000005h72.81777778v-283.3555911c0-34.75569778 20.07608889-58.97671111 38.09393777-58.97671112h579.31434667c18.01784889 0 38.0928 24.22101333 38.0928 58.97671112V365.79555555h72.81777778v-289.1821511c0-33.45521778-10.51192889-65.33916445-29.60042667-89.77749334-20.85546667-26.70250667-50.49230222-42.01699555-81.31015111-42.01699556zM147.98392889 329.24672c-11.32771555 0-22.48931555 5.26904889-29.60156444 15.17112889-11.73048889 16.33166222-8.00085333 39.08039111 8.33080888 50.81088l364.16056889 261.56942222c16.33166222 11.73276445 39.08152889 8.00085333 50.81201778-8.33080889 11.73162667-16.33166222 8.00085333-39.08152889-8.33080889-50.81201777L169.19438222 336.08704a36.24732445 36.24732445 0 0 0-21.21045333-6.84032zM877.30972445 330.38449777999995a36.23822222 36.23822222 0 0 0-21.21045334 6.84032L491.93984 598.79424c-16.33166222 11.73048889-20.06129778 34.48035555-8.33080889 50.81201778 11.73162667 16.33166222 34.48263111 20.06016 50.81088 8.33080889L898.58048 396.36764445c16.33166222-11.73048889 20.06243555-34.48035555 8.33080889-50.81088-7.11224889-9.90321778-18.27612445-15.17226667-29.60156444-15.17226667zM40.99299555 400.57856c-11.08195555 0-22.02396445 5.03921778-29.17603555 14.59313778-12.04906667 16.09728-8.76771555 38.91541333 7.32956445 50.96561777l473.17333333 354.18339556c16.09614222 12.04792889 38.91541333 8.76885333 50.96561777-7.32956444 12.05020445-16.09728 8.76771555-38.91541333-7.32956444-50.96561778L62.78257778 407.84213333a36.2496 36.2496 0 0 0-21.78958223-7.26357333zM987.28618667 400.57856a36.24163555 36.24163555 0 0 0-21.78958222 7.26357333L492.32440889 762.02552889c-16.09728 12.05020445-19.37976889 34.86833778-7.32956444 50.96561778 12.05020445 16.09841778 34.86833778 19.37863111 50.96561777 7.32956444l473.17219556-354.18339556c16.09728-12.05020445 19.37976889-34.86833778 7.32956444-50.96561777-7.15093333-9.55392-18.09521778-14.59313778-29.17603555-14.59313778zM512.11377778 65.42222221999998c-20.10794667 0-36.40888889 16.30094222-36.40888889 36.40888889V255.47093332999998c0 20.10794667 16.30094222 36.40888889 36.40888889 36.40888889 20.10794667 0 36.40888889-16.30094222 36.40888889-36.40888889V101.83111111000005c0-20.10794667-16.30208-36.40888889-36.40888889-36.40888889zM620.08888889 252.58666667H405.04888889c-14.13802667 0-25.6 11.46083555-25.6 25.6s11.46197333 25.6 25.6 25.6h215.04c14.13916445 0 25.6-11.46083555 25.6-25.6s-11.46083555-25.6-25.6-25.6zM621.22666667 159.28888888999995H406.18666667c-14.13802667 0-25.6 11.46083555-25.6 25.6s11.46197333 25.6 25.6 25.6h215.04c14.13916445 0 25.6-11.46083555 25.6-25.6s-11.46083555-25.6-25.6-25.6zM512.14563555 240.58424889000003c-11.58144 0-22.96832 5.51367111-30.0282311 15.77642666l-72.8325689 105.8668089c-11.39712 16.56604445-7.20554667 39.23399111 9.36049778 50.6311111 16.56718222 11.39484445 39.23512889 7.20554667 50.63224889-9.36049777l72.83143111-105.86680889c11.39825778-16.56604445 7.20668445-39.23399111-9.36049778-50.63111111a36.24049778 36.24049778 0 0 0-20.60288-6.41592889zM518.89379555 238.30869332999998a36.22798222 36.22798222 0 0 0-20.60401777 6.41706667c-16.56604445 11.39712-20.75648 34.06506667-9.36049778 50.63111111l72.83256889 105.86680889c11.39712 16.56604445 34.06620445 20.75648 50.63224889 9.36049778 16.56604445-11.39712 20.75648-34.06620445 9.35936-50.63111111l-72.83256889-105.86680889c-7.05877333-10.26275555-18.44792889-15.77756445-30.02709334-15.77756445z"  horiz-adv-x="1024" />

    
    <glyph glyph-name="caozuo-shangchuan-upload" unicode="&#58977;" d="M793.6 537.6C768 668.8 652.8 768 512 768s-256-99.2-281.6-230.4C134.4 512 64 422.4 64 320c0-124.8 99.2-224 224-224h32v64h-32c-89.6 0-160 70.4-160 160s70.4 160 160 160c0 124.8 99.2 224 224 224s224-99.2 224-224c89.6 0 160-70.4 160-160s-70.4-160-160-160h-32v-64h32c124.8 0 224 99.2 224 224 0 102.4-70.4 192-166.4 217.6zM540.8 406.4c-12.8 9.6-25.6 12.8-38.4 6.4-3.2 0-6.4-3.2-9.6-6.4l-96-92.8c-12.8-12.8-12.8-32 0-44.8 12.8-12.8 35.2-12.8 48 0l38.4 35.2v-272c0-19.2 16-32 32-32 19.2 0 32 16 32 32V304l38.4-35.2c12.8-12.8 35.2-12.8 48 0 12.8 12.8 12.8 32 0 44.8l-92.8 92.8z"  horiz-adv-x="1024" />

    
    <glyph glyph-name="baocun" unicode="&#58927;" d="M319.7 435.3h383.2c5.8 0 10.4 4.7 10.4 10.4V682l-101 65.4c-14.9 7.9-25.3 10.8-50.6 10.8H309.9c-0.4-1.1-0.6-2.3-0.6-3.5v-309c-0.1-5.7 4.6-10.4 10.4-10.4z m79.6 220.3h194.4c13.3 0 24.1-10.8 24.1-24.1s-10.8-24.1-24.1-24.1H399.3c-13.3 0-24.1 10.8-24.1 24.1s10.8 24.1 24.1 24.1z m0-100.9h194.4c13.3 0 24.1-10.8 24.1-24.1s-10.8-24.1-24.1-24.1H399.3c-13.3 0-24.1 10.8-24.1 24.1s10.8 24.1 24.1 24.1zM877.5 556.5c0 12.6 0.1 19.3-9.9 25.6l-90.1 58.3v-194.6c0-41.2-33.5-74.7-74.7-74.7H319.7c-41.2 0-74.7 33.5-74.7 74.7v309c0 1.2 0.1 2.3 0.2 3.5h-58.6c-22.9 0-41.5-18.6-41.5-41.5V54c0-22.9 18.6-41.5 41.5-41.5h649.5c22.9 0 41.5 18.6 41.5 41.5l-0.1 502.5z"  horiz-adv-x="1024" />

    
    <glyph glyph-name="bianji1" unicode="&#58911;" d="M779.636364-58.181818h-535.272728A174.778182 174.778182 0 0 0 69.818182 116.363636v535.272728A174.778182 174.778182 0 0 0 244.363636 826.181818H512a34.909091 34.909091 0 0 0 0-69.818182H244.363636A104.96 104.96 0 0 1 139.636364 651.636364v-535.272728a104.96 104.96 0 0 1 104.727272-104.727272h535.272728a104.96 104.96 0 0 1 104.727272 104.727272V384a34.909091 34.909091 0 0 0 69.818182 0v-267.636364a174.778182 174.778182 0 0 0-174.545454-174.545454zM808.96 746.821818l32.814545-33.047273 33.047273-32.814545-160.581818-160.581818-192-191.767273-72.378182-6.749091 6.749091 72.378182 191.767273 192 160.581818 160.581818m0 79.36a46.545455 46.545455 0 0 1-33.047273-13.730909l-176.872727-176.872727L395.636364 430.545455a23.272727 23.272727 0 0 1-6.749091-14.196364l-13.032728-144.989091a23.272727 23.272727 0 0 1 23.272728-25.367273h2.094545l144.989091 13.032728a23.272727 23.272727 0 0 1 14.196364 6.74909l203.869091 203.869091 176.872727 176.872728a46.545455 46.545455 0 0 1 0 65.861818l-50.036364 50.734545-49.338182 49.338182A46.545455 46.545455 0 0 1 808.96 826.181818z"  horiz-adv-x="1024" />

    
    <glyph glyph-name="chuli" unicode="&#58902;" d="M383.662719 822.920656a292.314453 292.314453 0 0 0 33.433466-1.826965 310.584106 310.584106 0 0 0 252.303912-427.875281A112.175671 112.175671 0 0 1 694.246826 269.89825099999996l253.765484-253.948181a7.307861 7.307861 0 0 0 2.192358-5.2982 7.673254 7.673254 0 0 0-2.192358-5.480896l-57.001318-57.001318a7.673254 7.673254 0 0 0-5.480896-2.192359 7.307861 7.307861 0 0 0-5.2982 2.192359L626.101019 201.75244399999997a113.089154 113.089154 0 0 1-123.32016 24.664032A310.584106 310.584106 0 0 0 84.040405 594.54999l141.589813-141.589813a92.809839 92.809839 0 0 1 66.684235-27.40448 79.838385 79.838385 0 0 1 13.15415 1.096179l74.905579 10.596399a93.723321 93.723321 0 0 1 79.107599 79.107599l10.596398 74.905578a93.357928 93.357928 0 0 1-26.3083 79.107599L301.449279 811.958864A307.660962 307.660962 0 0 0 383.662719 822.920656m0 73.078613A380.739575 380.739575 0 0 1 175.571368 834.613234l215.764606-215.947302a19.548529 19.548529 0 0 0 5.663592-16.990777l-10.596399-74.905579a20.096619 20.096619 0 0 0-17.173474-17.173474l-74.905578-10.596399h-2.740448a20.279315 20.279315 0 0 0-14.25033 6.028986L61.386035 720.427901a383.662719 383.662719 0 0 1 280.073785-588.648229A402.845855 402.845855 0 0 1 383.662719 128.67382999999995a383.662719 383.662719 0 0 1 147.984192 29.596839 38.366272 38.366272 0 0 0 14.981116 2.923144 40.375934 40.375934 0 0 0 28.500659-11.692578l253.765484-253.948181a80.751868 80.751868 0 0 1 114.002637 0l57.184015 57.184015a80.751868 80.751868 0 0 1 0 114.002637L745.584551 321.418673a40.193237 40.193237 0 0 0-8.769433 43.481775A383.662719 383.662719 0 0 1 424.22135 893.806911 392.432153 392.432153 0 0 1 383.662719 895.999269z"  horiz-adv-x="1024" />

    
    <glyph glyph-name="fujian" unicode="&#58950;" d="M503.629166-109.714286a53.76 53.76 0 0 0-37.851429 91.428572l381.805714 382.537143a237.714286 237.714286 0 0 1-336.274285 336.274285l-356.571429-356.571428a161.097143 161.097143 0 0 1 228.022857-227.84l334.811429 334.811428a81.554286 81.554286 0 0 1-115.2 115.931429L333.389166 297.325714a53.577143 53.577143 0 0 0-75.885715 75.885715l268.982858 268.982857a188.891429 188.891429 0 0 0 266.971428-267.154286L458.646309 40.228571A268.434286 268.434286 0 0 0 78.852023 420.571429l356.571428 356.571428a345.051429 345.051429 0 0 0 488.045715-488.777143L541.663451-93.622857a54.857143 54.857143 0 0 0-38.034285-16.091429z"  horiz-adv-x="1024" />

    
    <glyph glyph-name="rukuguanli" unicode="&#58949;" d="M852.8-52.1H666.3c-18.3 0-33.2 14.6-33.2 32.6s14.8 32.6 33.2 32.6h184.4V526.5L505.3 758.9 155.4 514.2v-162.8c0-18-14.8-32.6-33.2-32.6-18.3 0-33.2 14.6-33.2 32.6V515.3c0 20.4 10.1 39.6 27 51.4l352 246c21.9 15.3 51.4 15.6 73.6 0.7l347.6-233.7c17.5-11.8 27.9-31.2 27.9-52.1V11c0-34.8-28.9-63.1-64.3-63.1zM490.1 113.7h-348c-17.6 0-32 14.4-32 32s14.4 32 32 32h348c17.6 0 32-14.4 32-32s-14.4-32-32-32zM383.1-43.8c-7.8 0-15.7 2.9-21.8 8.6-12.9 12.1-13.6 32.3-1.5 45.2l128.7 137.7-135.3 132.6c-12.6 12.4-12.8 32.6-0.4 45.3 12.4 12.6 32.6 12.8 45.3 0.4l157.5-154.5c12.4-12.2 12.8-32 1-44.7l-150-160.5c-6.4-6.7-15-10.1-23.5-10.1z"  horiz-adv-x="1024" />

    
    <glyph glyph-name="zhenggaicuoshi" unicode="&#58978;" d="M755.924195 319.996628a288.634929 288.634929 0 0 1 268.155005 287.354933 275.194979 275.194979 0 0 1-10.87996 78.719708 32.639879 32.639879 0 0 1-39.679853 22.399917 31.999881 31.999881 0 0 1-13.43895-8.319969l-55.039796-55.679794a95.358646 95.358646 0 0 0-127.996525 0 92.798656 92.798656 0 0 0 0 127.997525l55.038796 59.51978a31.999881 31.999881 0 0 1 0 45.438831 28.799893 28.799893 0 0 1-15.99994 5.759979 292.474915 292.474915 0 0 1-78.718708 12.799952 286.714936 286.714936 0 0 1-289.274927-288.635929 229.11615 229.11615 0 0 1 4.479984-46.078829l-37.75986-34.559872-183.676319 183.037321a96.638641 96.638641 0 0 1-18.559931 109.438594l-63.998762 63.998763a30.719886 30.719886 0 0 1-44.799834 0l-94.077651-87.679675a30.719886 30.719886 0 0 1 0-44.798834l67.199751-63.998762a94.078651 94.078651 0 0 1 109.437594-18.559931l181.116327-184.316316L57.055788 199.679074A191.996288 191.996288 0 0 1 0.097 64.001577a191.996288 191.996288 0 0 1 56.319791-135.037498 191.996288 191.996288 0 0 1 272.634988 0L547.287969 167.040195l255.99505-255.99605a127.997525 127.997525 0 0 1 92.798656-39.039855 127.997525 127.997525 0 0 1 90.238665 218.23719zM167.774377 728.310112a32.639879 32.639879 0 0 0-45.439831 0l-44.158836 44.799834 44.799834 44.798834 44.798833-44.159836a31.999881 31.999881 0 0 0 0-45.439832z m115.197573-755.187197a127.997525 127.997525 0 0 0-181.116328 0 127.997525 127.997525 0 0 0 0 179.837332L508.248114 526.71386h3.839986a30.079888 30.079888 0 0 1 0 8.31997 42.239843 42.239843 0 0 1 0 9.599964 8.319969 8.319969 0 0 1 0 3.839986 197.756266 197.756266 0 0 0 0 59.517779A224.636166 224.636166 0 0 0 739.924254 831.988728l-10.239962-10.239962a157.437416 157.437416 0 0 1 0-221.435179 156.797418 156.797418 0 0 1 220.796181 0l9.599964 10.87996a223.356171 223.356171 0 0 0-273.914983-218.23719h-17.279936s-3.199988 0-5.119981-3.839986z m658.548556-18.559931a63.999763 63.999763 0 0 0-90.237665 0L602.966762 202.879062l90.238666 90.238665L941.520506 44.801649a63.999763 63.999763 0 0 0 18.559931-44.799834 63.999763 63.999763 0 0 0-18.559931-45.438831zM192.093287 128.00134a63.999763 63.999763 0 1 1 0-127.997525 63.999763 63.999763 0 0 1 0 127.997525z m0 0"  horiz-adv-x="1024" />

    
    <glyph glyph-name="yanfazhongxin" unicode="&#59336;" d="M941.611427 578.22475v-659.108583h-70.609531V896H341.333333v-976.883833H258.94476V578.22475h-258.88004v-706.22475h1200.556188V578.22475zM211.893313 107.38667699999996H47.116167v70.674251h164.777146z m0 153.062824H47.116167V331.059032h164.777146z m0 164.777145H47.116167V495.836177h164.777146z m564.940968-506.110479H447.27999v329.554292h329.554291z m0 470.773354H447.27999V460.499052h329.554291z m0 164.777146H447.27999V625.276198h329.554291z m0 164.777145H447.27999V790.053343h329.554291z m376.670459-612.057135h-164.777146v70.674251h164.777146z m0 153.062824h-164.777146V331.059032h164.777146z m0 164.777145h-164.777146V495.836177h164.777146z"  horiz-adv-x="1200" />

    
    <glyph glyph-name="jiantou-copy" unicode="&#59529;" d="M512.69 541.4a61.19 61.19 0 0 0 43.25-17.78999999l237.12-237.20000002a35 35 0 0 0-49.55-49.54999999l-230.89 230.9-230.9-230.89a35 35 0 1 0-49.55 49.55L469.3 523.54a61.41 61.41 0 0 0 43.39 17.86z"  horiz-adv-x="1024" />

    
    <glyph glyph-name="dingwei" unicode="&#58921;" d="M620.8 556.8c0 51.2-38.4 89.6-89.6 89.6s-89.6-38.4-89.6-89.6 38.4-89.6 89.6-89.6 89.6 38.4 89.6 89.6zM928 76.8c-12.8 12.8-38.4 19.2-70.4 25.6-19.2 6.4-57.6 6.4-83.2 6.4h-6.4c-12.8 0-19.2-12.8-19.2-25.6s12.8-25.6 25.6-25.6h25.6c51.2-6.4 76.8-12.8 83.2-25.6 6.4-6.4 12.8-19.2 12.8-25.6 0-12.8-25.6-32-89.6-51.2-70.4-19.2-166.4-25.6-275.2-25.6-115.2 0-204.8 6.4-275.2 25.6-76.8 19.2-96 44.8-96 51.2 0 12.8 6.4 19.2 12.8 25.6 12.8 6.4 32 12.8 70.4 19.2h32c12.8 0 25.6 12.8 25.6 25.6s-6.4 19.2-19.2 25.6h-6.4c-64 0-102.4-12.8-134.4-25.6-25.6-19.2-44.8-44.8-44.8-76.8 0-25.6 12.8-51.2 44.8-70.4 19.2-12.8 51.2-25.6 89.6-32 70.4-19.2 172.8-25.6 288-25.6 121.6 0 204.8 6.4 275.2 25.6 44.8 6.4 83.2 25.6 102.4 38.4 25.6 19.2 44.8 38.4 51.2 64 12.8 38.4 6.4 51.2-19.2 76.8zM486.4 44.8c12.8-12.8 25.6-19.2 44.8-19.2 12.8 0 32 6.4 44.8 19.2 57.6 76.8 102.4 147.2 166.4 249.6 70.4 115.2 115.2 211.2 115.2 275.2 0 83.2-32 166.4-89.6 224-64 64-140.8 96-224 96h-12.8c-83.2 0-160-32-224-96s-96-147.2-89.6-224c-6.4-64 32-166.4 102.4-275.2 64-108.8 115.2-172.8 166.4-249.6z m-128 704c51.2 51.2 115.2 76.8 172.8 76.8 64 0 128-25.6 172.8-76.8 51.2-51.2 76.8-102.4 76.8-172.8 0-32-19.2-89.6-64-172.8-44.8-76.8-96-160-172.8-268.8 0-6.4-6.4-6.4-12.8-6.4s-12.8 0-12.8 6.4c-147.2 204.8-236.8 371.2-236.8 441.6 0 70.4 25.6 121.6 76.8 172.8z"  horiz-adv-x="1024" />

    
    <glyph glyph-name="xiugaimima-copy" unicode="&#59530;" d="M512 309.62346666999997a45.51111111 45.51111111 0 0 1-45.51111111-45.51111112v-143.36a45.51111111 45.51111111 0 0 1 91.02222222 0v143.36a45.51111111 45.51111111 0 0 1-45.51111111 45.51111112zM875.91822222 491.66791111H368.83342222a0.18204445 0.18204445 0 0 0-0.17066667 0.18204444v166.11555556 1.35395556a143.36 143.36 0 0 0 286.72 0v-17.99964445a45.51111111 45.51111111 0 1 1 91.02222223 0V657.06666667c0 136.32853333-111.50222222 243.88266667-247.6032 236.31644444C375.46666667 886.48817778 277.61777778 784.33848889 277.61777778 659.3422222199999v-167.48088889a0.18204445 0.18204445 0 0 0-0.18204445-0.18204444H148.08177778A72.98844445 72.98844445 0 0 1 75.09333333 418.67946667v-471.40408889A72.98844445 72.98844445 0 0 1 148.08177778-125.72444444999996h727.83644444A72.98844445 72.98844445 0 0 1 948.90666667-52.724622220000015V418.67946667a72.98844445 72.98844445 0 0 1-72.98844445 72.98844444zM857.88444445-34.52017778000004a0.18204445 0.18204445 0 0 0-0.17066667-0.18204444h-691.42755556a0.18204445 0.18204445 0 0 0-0.17066667 0.18204444V400.47502222a0.17066667 0.17066667 0 0 0 0.17066667 0.17066667h691.42755556a0.17066667 0.17066667 0 0 0 0.17066667-0.17066667z"  horiz-adv-x="1024" />

    
    <glyph glyph-name="xiugaimima" unicode="&#58944;" d="M512 415.494375c-43.9284375 0-79.54125-35.5921875-79.54125-79.4971875 0-25.8740625 12.375-48.85125 31.5234375-63.3684375v-160.123125c0-26.5190625 21.49875-48.0178125 48.0178125-48.0178125s48.0178125 21.49875 48.0178125 48.0178125V272.62874999999997c19.149375 14.51625 31.5234375 37.494375 31.5234375 63.3684375 0 43.905-35.6128125 79.4971875-79.54125 79.4971875z m288.1246875 160.516875h-16.513125v16.3771875C783.6115625 742.395 662.0065625 864 512 864S240.3884375 742.395 240.3884375 592.3884375v-16.3771875h-16.5140625C144.3115625 576.01125 79.8125 511.513125 79.8125 431.949375v-383.8865625C79.8125-31.500937499999964 144.3115625-96 223.8753125-96h576.2503125C879.6884375-96 944.1875-31.500937499999964 944.1875 48.06281249999995V431.949375c0 79.56375-64.4990625 144.061875-144.0628125 144.061875zM303.40625 591.3984375c0 114.9253125 93.165 208.0903125 208.0903125 208.0903125h1.006875c114.9253125 0 208.0903125-93.165 208.0903125-208.0903125v-15.38625h-417.1875v15.38625z m576.24-526.845c0-53.041875-42.999375-96.04125-96.04125-96.04125H240.395c-53.0428125 0-96.04125 42.999375-96.04125 96.04125V415.45875C144.35375 468.500625 187.353125 511.5 240.395 511.5h543.21c53.041875 0 96.04125-42.999375 96.04125-96.04125v-350.9053125z"  horiz-adv-x="1024" />

    
    <glyph glyph-name="liulan" unicode="&#58894;" d="M512 615.098182c171.752727 0 328.145455-167.098182 387.956364-238.545455C839.68 304.872727 683.287273 138.007273 512 138.007273S183.389091 304.872727 123.578182 376.552727C183.389091 448 339.781818 615.098182 512 615.098182zM512 686.545455C298.356364 686.545455 117.76 483.141818 56.785455 405.876364a46.545455 46.545455 0 0 1 0-58.647273C117.76 269.963636 298.356364 66.56 512 66.56s393.309091 203.403636 454.283636 280.669091a46.545455 46.545455 0 0 1 0 58.647273C905.309091 483.141818 724.712727 686.545455 512 686.545455z m0-238.545455a71.68 71.68 0 1 0-69.818182-71.447273 69.818182 69.818182 0 0 0 69.818182 71.447273z m0 71.68A139.636364 139.636364 0 0 1 382.603636 430.545455a146.385455 146.385455 0 0 1 30.254546-155.927273 137.076364 137.076364 0 0 1 151.970909-30.254546A143.127273 143.127273 0 0 1 651.636364 376.552727a141.265455 141.265455 0 0 1-139.636364 143.127273z"  horiz-adv-x="1024" />

    
    <glyph glyph-name="xinbaniconshangchuan-" unicode="&#58952;" d="M733.866667 32H292.266667c-93.866667 0-170.666667 85.333333-170.666667 192 0 17.066667 14.933333 32 32 32s32-14.933333 32-32c0-70.4 46.933333-128 106.666667-128h441.6c59.733333 0 106.666667 57.6 106.666666 128 0 17.066667 14.933333 32 32 32s32-14.933333 32-32c0-106.666667-76.8-192-170.666666-192zM512 268.8c-17.066667 0-32 14.933333-32 32V704c0 17.066667 14.933333 32 32 32s32-14.933333 32-32v-403.2c0-17.066667-12.8-32-32-32zM512 232.533333c-8.533333 0-17.066667 2.133333-23.466667 8.533334L369.066667 362.666667c-12.8 12.8-12.8 32 0 44.8s32 12.8 44.8 0l98.133333-98.133334 98.133333 98.133334c12.8 12.8 32 12.8 44.8 0s12.8-32 0-44.8L533.333333 241.066667c-4.266667-6.4-12.8-8.533333-21.333333-8.533334z"  horiz-adv-x="1024" />

    
    <glyph glyph-name="chuzhijilu" unicode="&#58946;" d="M902.72 825.6H166.4c-29.33333333 0-53.33333333-24-53.33333333-53.33333333v-183.68h53.33333333V772.16l0.10666667 0.10666667h736.10666666l0.10666667-0.10666667v-778.77333333l-0.10666667-0.10666667H166.50666667l-0.10666667 0.10666667v185.6h-53.33333333v-185.70666667c0-29.33333333 24-53.33333333 53.33333333-53.33333333h736.32c29.33333333 0 53.33333333 24 53.33333333 53.33333333V772.26666667c0 29.33333333-24 53.33333333-53.33333333 53.33333333zM189.22666667 467.41333333H88.53333333c-10.02666667 0-18.13333333 11.94666667-18.13333333 26.66666667s8.10666667 26.66666667 18.13333333 26.66666667h100.69333334c10.02666667 0 18.13333333-11.94666667 18.13333333-26.66666667 0.10666667-14.72-8.10666667-26.66666667-18.13333333-26.66666667zM189.22666667 356.79999999999995H88.53333333c-10.02666667 0-18.13333333 11.94666667-18.13333333 26.66666667s8.10666667 26.66666667 18.13333333 26.66666666h100.69333334c10.02666667 0 18.13333333-11.94666667 18.13333333-26.66666666 0.10666667-14.72-8.10666667-26.66666667-18.13333333-26.66666667zM189.22666667 249.17333333H88.53333333c-10.02666667 0-18.13333333 11.94666667-18.13333333 26.66666667s8.10666667 26.66666667 18.13333333 26.66666667h100.69333334c10.02666667 0 18.13333333-11.94666667 18.13333333-26.66666667 0.10666667-14.72-8.10666667-26.66666667-18.13333333-26.66666667zM585.6 608.42666667c-7.78666667-49.70666667 6.61333333-101.33333333 43.73333333-138.45333334 29.54666667-29.54666667 69.44-45.86666667 112.21333334-45.86666666 8.74666667 0 17.49333333 0.74666667 26.13333333 2.13333333-2.77333333-3.41333333-5.86666667-6.61333333-8.96-9.81333333-13.97333333-13.97333333-30.08-24.74666667-47.89333333-32.10666667-17.06666667-7.04-34.88-10.56-53.01333334-10.56-13.65333333 0-26.98666667 2.02666667-39.68 6.08l-30.93333333 9.92-23.04-23.04-236.58666667-236.37333333c-6.08-6.08-13.33333333-7.04-17.17333333-7.04-3.73333333 0-11.09333333 0.96-17.17333333 7.04l-3.73333334 3.73333333c-9.28 9.28-9.28 24.96 0 34.24l236.48 236.48 23.04 23.04-9.92 30.93333333c-7.36 23.04-8.10666667 48.10666667-2.13333333 72.53333334 6.29333333 25.49333333 19.62666667 48.96 38.61333333 68.05333333 3.30666667 3.2 6.61333333 6.18666667 10.02666667 9.06666667m91.09333333 86.93333333c-49.49333333 0-99.94666667-19.52-138.66666666-58.24-53.65333333-53.65333333-70.50666667-129.6-49.6-194.56L251.94666667 206.08000000000004c-30.18666667-30.18666667-30.18666667-79.57333333 0-109.65333333l3.73333333-3.73333334c15.04-15.04 34.98666667-22.61333333 54.82666667-22.61333333s39.78666667 7.57333333 54.82666666 22.61333333l236.48 236.48c18.02666667-5.76 36.90666667-8.64 55.89333334-8.64 49.49333333 0 99.94666667 19.52 138.66666666 58.34666667 47.36 47.36 66.02666667 112.10666667 55.36 171.41333333-5.97333333-13.22666667-14.4-25.70666667-25.49333333-36.8-23.78666667-23.78666667-54.72-35.94666667-84.90666667-35.94666666-27.41333333 0-54.29333333 10.02666667-74.45333333 30.29333333-42.45333333 42.45333333-39.89333333 113.81333333 5.65333333 159.36 10.98666667 10.98666667 23.46666667 19.52 36.8 25.49333333-10.66666667 1.70666667-21.65333333 2.66666667-32.64 2.66666667z"  horiz-adv-x="1024" />

    
    <glyph glyph-name="tongjixiangmu-copy" unicode="&#60263;" d="M879.44970923 787.29846101h-143.39500829v-107.54625536h116.50844445v-636.31535104H171.43685461V679.75220565h116.50844445V787.29846101H63.89059811v-851.4078629h896.21880378V787.29846101zM346.19952128 832.10940189h62.73531677v-152.35719624H346.19952128zM252.09654727 540.83829077h519.80690546v-62.73531676H252.09654727zM252.09654727 240.60499171000004h519.80690546v-62.73531676H252.09654727zM252.09654727 390.72164067h519.80690546v-62.73531562H252.09654727zM615.06516195 832.10940189h62.73531677v-152.35719624h-62.73531677zM467.18906027 787.29846101h89.62187946v-107.54625536h-89.62187946z"  horiz-adv-x="1024" />

    


  </font>
</defs>
</svg>
