<?xml version="1.0" encoding="utf-8"?>
<!-- Generator: Adobe Illustrator 22.0.1, SVG Export Plug-In . SVG Version: 6.00 Build 0)  -->
<svg version="1.1" id="图层_1" xmlns="http://www.w3.org/2000/svg" xmlns:xlink="http://www.w3.org/1999/xlink" x="0px" y="0px"
	 viewBox="0 0 59 60" style="enable-background:new 0 0 59 60;" xml:space="preserve">
<style type="text/css">
	.st0{fill:none;stroke:#000000;stroke-miterlimit:10;}
</style>
<g>
	<polygon class="st0" points="17,11 8.7,11 8.7,7.4 4.8,7.4 4.8,55.9 55.2,55.9 55.2,7.4 51.3,7.4 51.3,11 50.2,11 50.2,14.2 
		51.5,14.2 51.5,51.8 8.7,51.8 8.7,14.7 17,14.7 	"/>
	<rect x="34.9" y="11" class="st0" width="9.9" height="3.6"/>
	<rect x="45" y="11.2" class="st0" width="5.2" height="3.4"/>
	<rect x="11.8" y="16.8" class="st0" width="28" height="27.2"/>
	<line class="st0" x1="17" y1="12.6" x2="52.8" y2="12.6"/>
	<line class="st0" x1="12.6" y1="17.3" x2="38.8" y2="43.5"/>
	<line class="st0" x1="39.3" y1="17.3" x2="13.1" y2="43.5"/>
	<rect x="17.5" y="46.6" class="st0" width="17.6" height="2.9"/>
	<line class="st0" x1="27.9" y1="55.9" x2="27.9" y2="58"/>
	<line class="st0" x1="32.3" y1="55.9" x2="32.3" y2="58"/>
	<line class="st0" x1="42.2" y1="14.7" x2="42.2" y2="51.8"/>
	<line class="st0" x1="45.8" y1="14.7" x2="45.8" y2="51.8"/>
	<line class="st0" x1="6.7" y1="18.3" x2="6.7" y2="53.3"/>
	<line class="st0" x1="5.4" y1="53.8" x2="10.5" y2="53.8"/>
	<line class="st0" x1="17.5" y1="53.8" x2="52.8" y2="53.8"/>
	<line class="st0" x1="53.3" y1="18.3" x2="53.3" y2="53.3"/>
	<line class="st0" x1="6.7" y1="7.7" x2="6.7" y2="12.9"/>
	<line class="st0" x1="9.8" y1="12.6" x2="6.7" y2="12.6"/>
	<line class="st0" x1="53.3" y1="7.7" x2="53.3" y2="10.3"/>
	<line class="st0" x1="17" y1="14.7" x2="35.2" y2="14.7"/>
	<rect x="17" y="15.2" class="st0" width="8.6" height="0.8"/>
	<rect x="26.1" y="15.2" class="st0" width="8.6" height="0.8"/>
	<g>
		<polyline class="st0" points="6.7,7.4 6.7,6.1 7.4,6.1 7.4,6.9 23,6.9 23,6.1 8.2,6.1 8.2,6.9 		"/>
		<polyline class="st0" points="17.8,6.1 17.8,5.3 20.7,5.3 20.7,5.9 		"/>
		<polyline class="st0" points="17.8,6.9 17.8,7.4 20.7,7.4 20.7,6.9 		"/>
		<polyline class="st0" points="23,6.2 23,3 22.7,3 		"/>
	</g>
	<g>
		<polyline class="st0" points="53.3,7.4 53.3,6.1 52.6,6.1 52.6,6.9 37,6.9 37,6.1 51.8,6.1 51.8,6.9 		"/>
		<polyline class="st0" points="42.2,6.1 42.2,5.3 39.3,5.3 39.3,5.9 		"/>
		<polyline class="st0" points="42.2,6.9 42.2,7.4 39.3,7.4 39.3,6.9 		"/>
		<polyline class="st0" points="37,6.1 37,3 37.3,3 		"/>
	</g>
</g>
</svg>
