<?xml version="1.0" encoding="utf-8"?>
<!-- Generator: Adobe Illustrator 22.0.1, SVG Export Plug-In . SVG Version: 6.00 Build 0)  -->
<svg version="1.1" id="图层_1" xmlns="http://www.w3.org/2000/svg" xmlns:xlink="http://www.w3.org/1999/xlink" x="0px" y="0px"
	 viewBox="0 0 50 60" style="enable-background:new 0 0 50 60;" xml:space="preserve">
<style type="text/css">
	.st0{fill:#FFFFFF;}
	.st1{fill:none;stroke:#000000;stroke-miterlimit:10;}
</style>
<g>
	<line class="st1" x1="0.8" y1="13.4" x2="22.7" y2="13.4"/>
	<line class="st1" x1="0.8" y1="18" x2="22.7" y2="18"/>
	<line class="st1" x1="0.8" y1="22.5" x2="22.7" y2="22.5"/>
	<line class="st1" x1="0.8" y1="27.2" x2="22.7" y2="27.2"/>
	<line class="st1" x1="0.6" y1="31.7" x2="22.5" y2="31.7"/>
	<line class="st1" x1="0.8" y1="36.2" x2="22.7" y2="36.2"/>
	<line class="st1" x1="0.8" y1="40.7" x2="22.7" y2="40.7"/>
	<line class="st1" x1="0.8" y1="45.2" x2="22.7" y2="45.2"/>
	<line class="st1" x1="0.8" y1="49.6" x2="22.7" y2="49.6"/>
	<line class="st1" x1="0.8" y1="54.1" x2="22.7" y2="54.1"/>
	<line class="st1" x1="27.4" y1="13.4" x2="49.2" y2="13.4"/>
	<line class="st1" x1="27.4" y1="18" x2="49.2" y2="18"/>
	<line class="st1" x1="27.4" y1="22.5" x2="49.2" y2="22.5"/>
	<line class="st1" x1="27.4" y1="27.2" x2="49.2" y2="27.2"/>
	<line class="st1" x1="27.6" y1="31.7" x2="49.4" y2="31.7"/>
	<line class="st1" x1="27.4" y1="36.2" x2="49.2" y2="36.2"/>
	<line class="st1" x1="27.4" y1="40.7" x2="49.2" y2="40.7"/>
	<line class="st1" x1="27.4" y1="45.2" x2="49.2" y2="45.2"/>
	<line class="st1" x1="27.4" y1="49.6" x2="49.2" y2="49.6"/>
	<line class="st1" x1="27.4" y1="54.1" x2="49.2" y2="54.1"/>
	<rect x="22.6" y="11.4" class="st1" width="4.9" height="45.3"/>
	<rect x="23.9" y="12.6" class="st1" width="2.1" height="42.6"/>
	<polyline class="st1" points="11.7,60 11.7,2 38.4,2 38.6,60 	"/>
</g>
</svg>
